<?xml version="1.0" encoding="UTF-8"?><svg id="katman_2" xmlns="http://www.w3.org/2000/svg" viewBox="0 0 351.98 221.28"><defs><style>.cls-1{fill:#f7f8f9;}.cls-2,.cls-3{fill:#fff;}.cls-4{fill:#1c1c1c;}.cls-5{fill:#4f4f4f;}.cls-3,.cls-6,.cls-7{stroke-miterlimit:10;}.cls-3,.cls-7{stroke:#1c1c1c;}.cls-6{fill:#21aed8;stroke:#fffcf3;}.cls-7{fill:none;stroke-width:3.48px;}</style></defs><g id="svg8"><g><path class="cls-4" d="M345.84,1.74H6.14C3.84,1.74,2.04,3.54,2.04,5.84v13.3H349.84V5.84c0-2.1-1.8-4.1-4-4.1Z"/><path class="cls-7" d="M347.74,219.54H4.24c-1.4,0-2.5-1.1-2.5-2.5V4.24c0-1.4,1.1-2.5,2.5-2.5H347.74c1.4,0,2.5,1.1,2.5,2.5V217.04c-.3,1.4-1.3,2.5-2.5,2.5Z"/><path class="cls-2" d="M196.54,13.44h-41.3c-1,0-1.5-.5-1.5-1.5V6.14c0-1,.5-1.5,1.5-1.5h41.3c1,0,1.5,.5,1.5,1.5v5.8c0,1-.5,1.5-1.5,1.5Z"/><g><path class="cls-2" d="M342.84,12.64h-4.8c-.8,0-1.2-.4-1.2-1.2V6.64c0-.8,.4-1.2,1.2-1.2h4.8c.8,0,1.2,.4,1.2,1.2v4.8c-.1,.8-.9,1.2-1.2,1.2Z"/><path class="cls-2" d="M331.64,12.64h-4.8c-.8,0-1.2-.4-1.2-1.2V6.64c0-.8,.4-1.2,1.2-1.2h4.8c.8,0,1.2,.4,1.2,1.2v4.8c0,.8-.4,1.2-1.2,1.2Z"/><path class="cls-2" d="M320.44,12.64h-4.8c-.8,0-1.2-.4-1.2-1.2V6.64c0-.8,.4-1.2,1.2-1.2h4.8c.8,0,1.2,.4,1.2,1.2v4.8c0,.8-.5,1.2-1.2,1.2Z"/></g><g><path class="cls-5" d="M8.04,11.84c-1.6,0-2.8-1.3-2.8-2.8s1.3-2.8,2.8-2.8H29.64c1.6,0,2.8,1.3,2.8,2.8s-1.3,2.8-2.8,2.8H8.04Z"/><path class="cls-1" d="M29.54,9.84H7.94c-.5,0-.8-.4-.8-.8s.4-.8,.8-.8H29.54c.5,0,.8,.4,.8,.8s-.3,.8-.8,.8Z"/></g><g><polygon class="cls-3" points="44.84 15.64 21.74 8.14 27.04 32.44 33.04 26.24 39.34 32.84 44.34 27.84 38.94 21.54 44.84 15.64"/><polygon class="cls-6" points="43.04 16.04 22.94 9.54 27.54 30.54 33.04 24.94 39.34 31.54 43.04 27.84 37.64 21.44 43.04 16.04"/></g></g></g></svg>