<?xml version="1.0" encoding="UTF-8" standalone="no"?>
<svg
   xmlns:osb="http://www.openswatchbook.org/uri/2009/osb"
   xmlns:dc="http://purl.org/dc/elements/1.1/"
   xmlns:cc="http://creativecommons.org/ns#"
   xmlns:rdf="http://www.w3.org/1999/02/22-rdf-syntax-ns#"
   xmlns:svg="http://www.w3.org/2000/svg"
   xmlns="http://www.w3.org/2000/svg"
   xmlns:sodipodi="http://sodipodi.sourceforge.net/DTD/sodipodi-0.dtd"
   xmlns:inkscape="http://www.inkscape.org/namespaces/inkscape"
   id="katman_2"
   viewBox="0 0 360 240"
   version="1.1"
   sodipodi:docname="layout_img_10_1.svg"
   width="360"
   height="240"
   inkscape:version="1.0.2 (e86c870879, 2021-01-15)">
  <metadata
     id="metadata61">
    <rdf:RDF>
      <cc:Work
         rdf:about="">
        <dc:format>image/svg+xml</dc:format>
        <dc:type
           rdf:resource="http://purl.org/dc/dcmitype/StillImage" />
      </cc:Work>
    </rdf:RDF>
  </metadata>
  <sodipodi:namedview
     id="namedview39"
     pagecolor="#ffffff"
     bordercolor="#000000"
     borderopacity="0.25"
     inkscape:showpageshadow="2"
     inkscape:pageopacity="0.0"
     inkscape:pagecheckerboard="0"
     inkscape:deskcolor="#d1d1d1"
     inkscape:zoom="2.0000001"
     inkscape:cx="117.42362"
     inkscape:cy="86.113451"
     inkscape:window-width="1920"
     inkscape:window-height="1011"
     inkscape:window-x="0"
     inkscape:window-y="0"
     inkscape:window-maximized="1"
     inkscape:current-layer="g2269"
     inkscape:document-rotation="0"
     showgrid="false" />
  <defs
     id="defs1">
    <linearGradient
       id="linearGradient2839"
       osb:paint="solid">
      <stop
         style="stop-color:#000000;stop-opacity:1;"
         offset="0"
         id="stop2837" />
    </linearGradient>
    <style
       id="style1">.cls-1{fill:#f4f7f9;}.cls-2,.cls-3{fill:#fff;}.cls-4{fill:#4f4f4f;}.cls-5{stroke-width:2.87px;}.cls-5,.cls-6,.cls-7,.cls-8,.cls-9,.cls-10,.cls-11{fill:none;}.cls-5,.cls-7,.cls-8,.cls-9,.cls-11{stroke:#f4f7f9;stroke-linecap:round;stroke-linejoin:round;}.cls-12{stroke-width:4.72px;}.cls-12,.cls-6,.cls-3,.cls-13,.cls-14,.cls-10{stroke-miterlimit:10;}.cls-12,.cls-3,.cls-14,.cls-10{stroke:#1c1c1c;}.cls-12,.cls-14{fill:#2d2d2d;}.cls-6{stroke:#fafcff;stroke-width:.68px;}.cls-7{stroke-width:2.37px;}.cls-13{fill:#21aed8;stroke:#fffcf3;}.cls-8{stroke-width:2.41px;}.cls-9{stroke-width:2.12px;}.cls-14{stroke-width:1.74px;}.cls-10{stroke-width:3.48px;}.cls-11{stroke-width:3.03px;}</style>
  </defs>
  <g
     id="svg8"
     transform="matrix(1.022599,0,0,1.0485623,0.02257606,-0.01604203)">
    <g
       id="g39">
      <g
         id="g38">
        <path
           class="cls-10"
           d="M 347.94,219.64 H 4.24 c -1.4,0 -2.5,-1.1 -2.5,-2.5 V 4.24 c 0,-1.4 1.1,-2.5 2.5,-2.5 h 343.5 c 1.4,0 2.5,1.1 2.5,2.5 v 212.8 c 0,1.4 -1.1,2.6 -2.3,2.6 z"
           id="path22" />
        <path
           class="cls-12"
           d="M 349.64,192.64 H 2.54 v 24.4 c 0,1.4 1.1,2.5 2.5,2.5 h 342.1 c 1.4,0 2.5,-1.1 2.5,-2.5 z"
           id="path23" />
        <path
           class="cls-2"
           d="m 33.54,197.9 h 13.7 c 1,0 1.5,0.5 1.5,1.5 v 13.7 c 0,1 -0.5,1.5 -1.5,1.5 h -13.7 c -1,0 -1.5,-0.5 -1.5,-1.5 v -13.7 c 0.1,-1.2 1,-1.5 1.5,-1.5 z"
           id="path24" />
        <path
           class="cls-2"
           d="m 56.44,197.9 h 13.7 c 1,0 1.5,0.5 1.5,1.5 v 13.7 c 0,1 -0.5,1.5 -1.5,1.5 h -13.7 c -1,0 -1.5,-0.5 -1.5,-1.5 v -13.7 c 0.1,-1.2 1,-1.5 1.5,-1.5 z"
           id="path25" />
        <path
           class="cls-2"
           d="m 79.24,197.9 h 13.8 c 1,0 1.5,0.5 1.5,1.5 v 13.7 c 0,1 -0.5,1.5 -1.5,1.5 h -13.8 c -1,0 -1.5,-0.5 -1.5,-1.5 v -13.7 c 0.2,-1.2 1.1,-1.5 1.5,-1.5 z"
           id="path26" />
        <path
           class="cls-2"
           d="m 102.24,197.9 h 13.7 c 1,0 1.5,0.5 1.5,1.5 v 13.7 c 0,1 -0.5,1.5 -1.5,1.5 h -13.7 c -1,0 -1.5,-0.5 -1.5,-1.5 v -13.7 c 0.1,-1.2 1.1,-1.5 1.5,-1.5 z"
           id="path27" />
        <path
           class="cls-2"
           d="m 125.14,197.9 h 13.7 c 1,0 1.5,0.5 1.5,1.5 v 13.7 c 0,1 -0.5,1.5 -1.5,1.5 h -13.7 c -1,0 -1.5,-0.5 -1.5,-1.5 v -13.7 c 0.1,-1.2 1.1,-1.5 1.5,-1.5 z"
           id="path28" />
        <path
           class="cls-2"
           d="m 308.14,209.95 h -41.3 c -1,0 -1.5,-0.4 -1.5,-1.3 v -4.8 c 0,-0.8 0.5,-1.3 1.5,-1.3 h 41.3 c 1,0 1.5,0.4 1.5,1.3 v 4.8 c 0,0.8 -0.5,1.3 -1.5,1.3 z"
           id="path29" />
        <g
           id="g32">
          <path
             class="cls-2"
             d="m 343.44,209.85 h -4.8 c -0.8,0 -1.2,-0.4 -1.2,-1.2 v -4.8 c 0,-0.8 0.4,-1.2 1.2,-1.2 h 4.8 c 0.8,0 1.2,0.4 1.2,1.2 v 4.8 c 0,0.9 -0.8,1.2 -1.2,1.2 z"
             id="path30" />
          <path
             class="cls-2"
             d="m 332.24,209.85 h -4.8 c -0.8,0 -1.2,-0.4 -1.2,-1.2 v -4.8 c 0,-0.8 0.4,-1.2 1.2,-1.2 h 4.8 c 0.8,0 1.2,0.4 1.2,1.2 v 4.8 c 0,0.9 -0.4,1.2 -1.2,1.2 z"
             id="path31" />
          <path
             class="cls-2"
             d="m 321.04,209.85 h -4.8 c -0.8,0 -1.2,-0.4 -1.2,-1.2 v -4.8 c 0,-0.8 0.4,-1.2 1.2,-1.2 h 4.8 c 0.8,0 1.2,0.4 1.2,1.2 v 4.8 c 0,0.9 -0.4,1.2 -1.2,1.2 z"
             id="path32" />
        </g>
        <path
           class="cls-2"
           d="m 116.14,216.54 h -14 c -0.4,0 -0.8,-0.2 -0.8,-0.6 0,-0.3 0.3,-0.6 0.8,-0.6 h 14 c 0.4,0 0.8,0.2 0.8,0.6 -0.1,0.3 -0.4,0.6 -0.8,0.6 z"
           id="path33" />
        <path
           class="cls-4"
           d="m 9.39,196.93 h 15.4 c 1.1,0 1.7,0.6 1.7,1.7 v 15.4 c 0,1.1 -0.6,1.7 -1.7,1.7 H 9.39 c -1.1,0 -1.7,-0.6 -1.7,-1.7 v -15.4 c 0.1,-1.1 1.1,-1.7 1.7,-1.7 z"
           id="path34" />
        <g
           id="g36">
          <path
             class="cls-2"
             d="m 12.94,207.5 c 1.7,0 3.3,1.7 3.3,3.3 0,1.7 -1.7,3.3 -3.3,3.3 -1.7,0 -3.3,-1.7 -3.3,-3.3 0,-1.6 1.6,-3.3 3.3,-3.3 z"
             id="path35" />
          <circle
             class="cls-2"
             cx="12.94"
             cy="201.7"
             r="3.3"
             id="circle35" />
          <path
             class="cls-2"
             d="m 21.24,207.5 c 1.7,0 3.3,1.7 3.3,3.3 0,1.7 -1.7,3.3 -3.3,3.3 -1.7,0 -3.3,-1.7 -3.3,-3.3 0,-1.6 1.7,-3.3 3.3,-3.3 z"
             id="path36" />
          <circle
             class="cls-2"
             cx="21.24"
             cy="201.7"
             r="3.3"
             id="circle36" />
        </g>
        <g
           id="g37">
          <polygon
             class="cls-3"
             points="27.42,221.6 33.72,228.2 38.72,223.2 33.32,216.9 39.22,211 16.12,203.5 21.42,227.8 "
             id="polygon36" />
          <polygon
             class="cls-13"
             points="27.42,220.3 33.72,226.9 37.42,223.2 32.02,216.8 37.42,211.4 17.32,204.9 21.92,225.9 "
             id="polygon37" />
        </g>
      </g>
      <g
         id="g2269"
         transform="matrix(0.97790043,0,0,0.95368678,1859.5235,-21.88545)"
         style="fill:#2d2d2d;fill-opacity:1">
        <g
           id="g2067"
           style="fill:#ffffff;fill-opacity:1;stroke:#1c1c1c;stroke-opacity:1;stroke-width:1.74;stroke-miterlimit:10;stroke-dasharray:none">
          <circle
             class="st7"
             cx="-1723.2"
             cy="215"
             r="3.0999999"
             id="circle2063"
             style="fill:#ffffff;fill-opacity:1;stroke:#1c1c1c;stroke-opacity:1;stroke-width:1.74;stroke-miterlimit:10;stroke-dasharray:none" />
          <circle
             class="st10"
             cx="-1714.5"
             cy="215"
             r="2.0999999"
             id="circle2065"
             style="fill:#ffffff;fill-opacity:1;stroke:#1c1c1c;stroke-opacity:1;stroke-width:1.74;stroke-miterlimit:10;stroke-dasharray:none" />
        </g>
        <path
           class="st11"
           d="m -1797.8,119.4 h -12.7 c -2,0 -3.7,-1.7 -3.7,-3.7 v -13.9 c 0,-2 1.7,-3.7 3.7,-3.7 h 12.7 c 2,0 3.7,1.7 3.7,3.7 v 13.9 c 0.3,2 -1.5,3.7 -3.7,3.7 z"
           id="path2069"
           style="fill:#2d2d2d;fill-opacity:1;stroke:#1c1c1c;stroke-opacity:1;stroke-width:1.74;stroke-miterlimit:10;stroke-dasharray:none" />
        <path
           class="st11"
           d="m -1769.4,119.4 h -12.7 c -2,0 -3.7,-1.7 -3.7,-3.7 v -13.9 c 0,-2 1.7,-3.7 3.7,-3.7 h 12.7 c 2,0 3.7,1.7 3.7,3.7 v 13.9 c -0.1,2 -1.7,3.7 -3.7,3.7 z"
           id="path2071"
           style="fill:#2d2d2d;fill-opacity:1;stroke:#1c1c1c;stroke-opacity:1;stroke-width:1.74;stroke-miterlimit:10;stroke-dasharray:none" />
        <path
           class="st11"
           d="m -1741.2,119.4 h -12.7 c -2,0 -3.7,-1.7 -3.7,-3.7 v -13.9 c 0,-2 1.7,-3.7 3.7,-3.7 h 12.7 c 2,0 3.7,1.7 3.7,3.7 v 13.9 c 0,2 -1.7,3.7 -3.7,3.7 z"
           id="path2073"
           style="fill:#2d2d2d;fill-opacity:1;stroke:#1c1c1c;stroke-opacity:1;stroke-width:1.74;stroke-miterlimit:10;stroke-dasharray:none" />
        <path
           class="st11"
           d="m -1713,119.4 h -12.7 c -2,0 -3.7,-1.7 -3.7,-3.7 v -13.9 c 0,-2 1.7,-3.7 3.7,-3.7 h 12.7 c 2,0 3.7,1.7 3.7,3.7 v 13.9 c -0.1,2 -1.7,3.7 -3.7,3.7 z"
           id="path2075"
           style="fill:#2d2d2d;fill-opacity:1;stroke:#1c1c1c;stroke-opacity:1;stroke-width:1.74;stroke-miterlimit:10;stroke-dasharray:none" />
        <path
           class="st11"
           d="m -1684.9,119.4 h -12.7 c -2,0 -3.7,-1.7 -3.7,-3.7 v -13.9 c 0,-2 1.7,-3.7 3.7,-3.7 h 12.7 c 2,0 3.7,1.7 3.7,3.7 v 13.9 c 0,2 -1.7,3.7 -3.7,3.7 z"
           id="path2077"
           style="fill:#2d2d2d;fill-opacity:1;stroke:#1c1c1c;stroke-opacity:1;stroke-width:1.74;stroke-miterlimit:10;stroke-dasharray:none" />
        <path
           class="st11"
           d="m -1656.8,119.4 h -12.7 c -2,0 -3.7,-1.7 -3.7,-3.7 v -13.9 c 0,-2 1.7,-3.7 3.7,-3.7 h 12.7 c 2,0 3.7,1.7 3.7,3.7 v 13.9 c 0.1,2 -1.4,3.7 -3.7,3.7 z"
           id="path2079"
           style="fill:#2d2d2d;fill-opacity:1;stroke:#1c1c1c;stroke-opacity:1;stroke-width:1.74;stroke-miterlimit:10;stroke-dasharray:none" />
        <path
           class="st11"
           d="m -1628.5,119.4 h -12.7 c -2,0 -3.7,-1.7 -3.7,-3.7 v -13.9 c 0,-2 1.7,-3.7 3.7,-3.7 h 12.7 c 2,0 3.7,1.7 3.7,3.7 v 13.9 c 0,2 -1.6,3.7 -3.7,3.7 z"
           id="path2081"
           style="fill:#2d2d2d;fill-opacity:1;stroke:#1c1c1c;stroke-opacity:1;stroke-width:1.74;stroke-miterlimit:10;stroke-dasharray:none" />
        <path
           class="st11"
           d="m -1797.8,148.1 h -12.7 c -2,0 -3.7,-1.7 -3.7,-3.7 v -13.9 c 0,-2 1.7,-3.7 3.7,-3.7 h 12.7 c 2,0 3.7,1.7 3.7,3.7 v 13.9 c 0.3,2 -1.5,3.7 -3.7,3.7 z"
           id="path2083"
           style="fill:#2d2d2d;fill-opacity:1;stroke:#1c1c1c;stroke-opacity:1;stroke-width:1.74;stroke-miterlimit:10;stroke-dasharray:none" />
        <path
           class="st11"
           d="m -1769.4,148.1 h -12.7 c -2,0 -3.7,-1.7 -3.7,-3.7 v -13.9 c 0,-2 1.7,-3.7 3.7,-3.7 h 12.7 c 2,0 3.7,1.7 3.7,3.7 v 13.9 c -0.1,2 -1.7,3.7 -3.7,3.7 z"
           id="path2085"
           style="fill:#2d2d2d;fill-opacity:1;stroke:#1c1c1c;stroke-opacity:1;stroke-width:1.74;stroke-miterlimit:10;stroke-dasharray:none" />
        <path
           class="st11"
           d="m -1741.2,148.1 h -12.7 c -2,0 -3.7,-1.7 -3.7,-3.7 v -13.9 c 0,-2 1.7,-3.7 3.7,-3.7 h 12.7 c 2,0 3.7,1.7 3.7,3.7 v 13.9 c 0,2 -1.7,3.7 -3.7,3.7 z"
           id="path2087"
           style="fill:#2d2d2d;fill-opacity:1;stroke:#1c1c1c;stroke-opacity:1;stroke-width:1.74;stroke-miterlimit:10;stroke-dasharray:none" />
        <path
           class="st11"
           d="m -1713,148.1 h -12.7 c -2,0 -3.7,-1.7 -3.7,-3.7 v -13.9 c 0,-2 1.7,-3.7 3.7,-3.7 h 12.7 c 2,0 3.7,1.7 3.7,3.7 v 13.9 c -0.1,2 -1.7,3.7 -3.7,3.7 z"
           id="path2089"
           style="fill:#2d2d2d;fill-opacity:1;stroke:#1c1c1c;stroke-opacity:1;stroke-width:1.74;stroke-miterlimit:10;stroke-dasharray:none" />
        <path
           class="st11"
           d="m -1684.9,148.1 h -12.7 c -2,0 -3.7,-1.7 -3.7,-3.7 v -13.9 c 0,-2 1.7,-3.7 3.7,-3.7 h 12.7 c 2,0 3.7,1.7 3.7,3.7 v 13.9 c 0,2 -1.7,3.7 -3.7,3.7 z"
           id="path2091"
           style="fill:#2d2d2d;fill-opacity:1;stroke:#1c1c1c;stroke-opacity:1;stroke-width:1.74;stroke-miterlimit:10;stroke-dasharray:none" />
        <path
           class="st11"
           d="m -1656.8,148.1 h -12.7 c -2,0 -3.7,-1.7 -3.7,-3.7 v -13.9 c 0,-2 1.7,-3.7 3.7,-3.7 h 12.7 c 2,0 3.7,1.7 3.7,3.7 v 13.9 c 0.1,2 -1.4,3.7 -3.7,3.7 z"
           id="path2093"
           style="fill:#2d2d2d;fill-opacity:1;stroke:#1c1c1c;stroke-opacity:1;stroke-width:1.74;stroke-miterlimit:10;stroke-dasharray:none" />
        <path
           class="st11"
           d="m -1628.5,148.1 h -12.7 c -2,0 -3.7,-1.7 -3.7,-3.7 v -13.9 c 0,-2 1.7,-3.7 3.7,-3.7 h 12.7 c 2,0 3.7,1.7 3.7,3.7 v 13.9 c 0,2 -1.6,3.7 -3.7,3.7 z"
           id="path2095"
           style="fill:#2d2d2d;fill-opacity:1;stroke:#1c1c1c;stroke-opacity:1;stroke-width:1.74;stroke-miterlimit:10;stroke-dasharray:none" />
        <path
           class="st11"
           d="m -1797.8,176.7 h -12.7 c -2,0 -3.7,-1.7 -3.7,-3.7 v -13.9 c 0,-2 1.7,-3.7 3.7,-3.7 h 12.7 c 2,0 3.7,1.7 3.7,3.7 V 173 c 0.3,2 -1.5,3.7 -3.7,3.7 z"
           id="path2097"
           style="fill:#2d2d2d;fill-opacity:1;stroke:#1c1c1c;stroke-opacity:1;stroke-width:1.74;stroke-miterlimit:10;stroke-dasharray:none" />
        <path
           class="st11"
           d="m -1769.4,176.7 h -12.7 c -2,0 -3.7,-1.7 -3.7,-3.7 v -13.9 c 0,-2 1.7,-3.7 3.7,-3.7 h 12.7 c 2,0 3.7,1.7 3.7,3.7 V 173 c -0.1,2 -1.7,3.7 -3.7,3.7 z"
           id="path2099"
           style="fill:#2d2d2d;fill-opacity:1;stroke:#1c1c1c;stroke-opacity:1;stroke-width:1.74;stroke-miterlimit:10;stroke-dasharray:none" />
        <path
           class="st11"
           d="m -1741.2,176.7 h -12.7 c -2,0 -3.7,-1.7 -3.7,-3.7 v -13.9 c 0,-2 1.7,-3.7 3.7,-3.7 h 12.7 c 2,0 3.7,1.7 3.7,3.7 V 173 c 0,2 -1.7,3.7 -3.7,3.7 z"
           id="path2101"
           style="fill:#2d2d2d;fill-opacity:1;stroke:#1c1c1c;stroke-opacity:1;stroke-width:1.74;stroke-miterlimit:10;stroke-dasharray:none" />
        <path
           class="st11"
           d="m -1713,176.7 h -12.7 c -2,0 -3.7,-1.7 -3.7,-3.7 v -13.9 c 0,-2 1.7,-3.7 3.7,-3.7 h 12.7 c 2,0 3.7,1.7 3.7,3.7 V 173 c -0.1,2 -1.7,3.7 -3.7,3.7 z"
           id="path2103"
           style="fill:#2d2d2d;fill-opacity:1;stroke:#1c1c1c;stroke-opacity:1;stroke-width:1.74;stroke-miterlimit:10;stroke-dasharray:none" />
        <path
           class="st11"
           d="m -1684.9,176.7 h -12.7 c -2,0 -3.7,-1.7 -3.7,-3.7 v -13.9 c 0,-2 1.7,-3.7 3.7,-3.7 h 12.7 c 2,0 3.7,1.7 3.7,3.7 V 173 c 0,2 -1.7,3.7 -3.7,3.7 z"
           id="path2105"
           style="fill:#2d2d2d;fill-opacity:1;stroke:#1c1c1c;stroke-opacity:1;stroke-width:1.74;stroke-miterlimit:10;stroke-dasharray:none" />
        <path
           class="st11"
           d="m -1656.8,176.7 h -12.7 c -2,0 -3.7,-1.7 -3.7,-3.7 v -13.9 c 0,-2 1.7,-3.7 3.7,-3.7 h 12.7 c 2,0 3.7,1.7 3.7,3.7 V 173 c 0.1,2 -1.4,3.7 -3.7,3.7 z"
           id="path2107"
           style="fill:#2d2d2d;fill-opacity:1;stroke:#1c1c1c;stroke-opacity:1;stroke-width:1.74;stroke-miterlimit:10;stroke-dasharray:none" />
        <path
           class="st11"
           d="m -1628.5,176.7 h -12.7 c -2,0 -3.7,-1.7 -3.7,-3.7 v -13.9 c 0,-2 1.7,-3.7 3.7,-3.7 h 12.7 c 2,0 3.7,1.7 3.7,3.7 V 173 c 0,2 -1.6,3.7 -3.7,3.7 z"
           id="path2109"
           style="fill:#2d2d2d;fill-opacity:1;stroke:#1c1c1c;stroke-opacity:1;stroke-width:1.74;stroke-miterlimit:10;stroke-dasharray:none" />
        <g
           id="g2119"
           style="fill:#2d2d2d;fill-opacity:1;stroke:#1c1c1c;stroke-opacity:1;stroke-width:1.74;stroke-miterlimit:10;stroke-dasharray:none">
          <path
             class="st10"
             d="m -1678.5,43.6 h -82 c -3.5,0 -6.2,-2.7 -6.2,-6.2 v 0 c 0,-3.5 2.7,-6.2 6.2,-6.2 h 82 c 3.5,0 6.2,2.7 6.2,6.2 v 0 c 0.1,3.5 -2.7,6.2 -6.2,6.2 z"
             id="path2111"
             style="fill:#2d2d2d;fill-opacity:1;stroke:#1c1c1c;stroke-opacity:1;stroke-width:1.74;stroke-miterlimit:10;stroke-dasharray:none" />
          <g
             id="g2117"
             style="fill:#2d2d2d;fill-opacity:1;stroke:#ffffff;stroke-opacity:1;stroke-width:1.74;stroke-miterlimit:10;stroke-dasharray:none">
            <circle
               class="st16"
               cx="-1759.9"
               cy="37.099998"
               r="2.4000001"
               id="circle2113"
               style="fill:#2d2d2d;fill-opacity:1;stroke:#ffffff;stroke-opacity:1;stroke-width:1.74;stroke-miterlimit:10;stroke-dasharray:none" />
            <line
               class="st16"
               x1="-1758"
               y1="38.700001"
               x2="-1755.5"
               y2="41.200001"
               id="line2115"
               style="fill:#2d2d2d;fill-opacity:1;stroke:#ffffff;stroke-opacity:1;stroke-width:1.74;stroke-miterlimit:10;stroke-dasharray:none" />
          </g>
        </g>
        <path
           class="st11"
           d="m -1797.8,205.5 h -12.7 c -2,0 -3.7,-1.7 -3.7,-3.7 v -13.9 c 0,-2 1.7,-3.7 3.7,-3.7 h 12.7 c 2,0 3.7,1.7 3.7,3.7 v 13.9 c 0.3,2 -1.5,3.7 -3.7,3.7 z"
           id="path2121"
           style="fill:#2d2d2d;fill-opacity:1;stroke:#1c1c1c;stroke-opacity:1;stroke-width:1.74;stroke-miterlimit:10;stroke-dasharray:none" />
        <path
           class="st11"
           d="m -1769.4,205.5 h -12.7 c -2,0 -3.7,-1.7 -3.7,-3.7 v -13.9 c 0,-2 1.7,-3.7 3.7,-3.7 h 12.7 c 2,0 3.7,1.7 3.7,3.7 v 13.9 c -0.1,2 -1.7,3.7 -3.7,3.7 z"
           id="path2123"
           style="fill:#2d2d2d;fill-opacity:1;stroke:#1c1c1c;stroke-opacity:1;stroke-width:1.74;stroke-miterlimit:10;stroke-dasharray:none" />
        <path
           class="st11"
           d="m -1741.2,205.5 h -12.7 c -2,0 -3.7,-1.7 -3.7,-3.7 v -13.9 c 0,-2 1.7,-3.7 3.7,-3.7 h 12.7 c 2,0 3.7,1.7 3.7,3.7 v 13.9 c 0,2 -1.7,3.7 -3.7,3.7 z"
           id="path2125"
           style="fill:#2d2d2d;fill-opacity:1;stroke:#1c1c1c;stroke-opacity:1;stroke-width:1.74;stroke-miterlimit:10;stroke-dasharray:none" />
        <path
           class="st11"
           d="m -1713,205.5 h -12.7 c -2,0 -3.7,-1.7 -3.7,-3.7 v -13.9 c 0,-2 1.7,-3.7 3.7,-3.7 h 12.7 c 2,0 3.7,1.7 3.7,3.7 v 13.9 c -0.1,2 -1.7,3.7 -3.7,3.7 z"
           id="path2127"
           style="fill:#2d2d2d;fill-opacity:1;stroke:#1c1c1c;stroke-opacity:1;stroke-width:1.74;stroke-miterlimit:10;stroke-dasharray:none" />
        <path
           class="st11"
           d="m -1684.9,205.5 h -12.7 c -2,0 -3.7,-1.7 -3.7,-3.7 v -13.9 c 0,-2 1.7,-3.7 3.7,-3.7 h 12.7 c 2,0 3.7,1.7 3.7,3.7 v 13.9 c 0,2 -1.7,3.7 -3.7,3.7 z"
           id="path2129"
           style="fill:#2d2d2d;fill-opacity:1;stroke:#1c1c1c;stroke-opacity:1;stroke-width:1.74;stroke-miterlimit:10;stroke-dasharray:none" />
        <path
           class="st11"
           d="m -1656.8,205.5 h -12.7 c -2,0 -3.7,-1.7 -3.7,-3.7 v -13.9 c 0,-2 1.7,-3.7 3.7,-3.7 h 12.7 c 2,0 3.7,1.7 3.7,3.7 v 13.9 c 0.1,2 -1.4,3.7 -3.7,3.7 z"
           id="path2131"
           style="fill:#2d2d2d;fill-opacity:1;stroke:#1c1c1c;stroke-opacity:1;stroke-width:1.74;stroke-miterlimit:10;stroke-dasharray:none" />
        <path
           class="st11"
           d="m -1628.5,205.5 h -12.7 c -2,0 -3.7,-1.7 -3.7,-3.7 v -13.9 c 0,-2 1.7,-3.7 3.7,-3.7 h 12.7 c 2,0 3.7,1.7 3.7,3.7 v 13.9 c 0,2 -1.6,3.7 -3.7,3.7 z"
           id="path2133"
           style="fill:#2d2d2d;fill-opacity:1;stroke:#1c1c1c;stroke-opacity:1;stroke-width:1.74;stroke-miterlimit:10;stroke-dasharray:none" />
        <g
           id="g2139"
           transform="translate(-4.212124,1.1234995)"
           style="fill:#2d2d2d;fill-opacity:1;stroke:#000000;stroke-opacity:1">
          <rect
             x="-1784"
             y="51.900002"
             class="st3"
             width="66.300003"
             height="37.299999"
             id="rect2135"
             style="fill:#2d2d2d;fill-opacity:1;stroke:#1c1c1c;stroke-opacity:1;stroke-width:1.74000001;stroke-miterlimit:10;stroke-dasharray:none" />
          <rect
             x="-1714.8"
             y="53.700001"
             class="st3"
             width="59.900002"
             height="33.599998"
             id="rect2137"
             style="fill:#2d2d2d;fill-opacity:1;stroke:#1c1c1c;stroke-opacity:1;stroke-width:1.74000001;stroke-miterlimit:10;stroke-dasharray:none" />
        </g>
      </g>
    </g>
  </g>
</svg>
