<?xml version="1.0" encoding="UTF-8" standalone="no"?>
<!-- Created with Inkscape (http://www.inkscape.org/) -->

<svg
   width="64"
   height="64"
   viewBox="0 0 16.933333 16.933333"
   version="1.1"
   id="svg8453"
   inkscape:version="1.2.2 (732a01da63, 2022-12-09)"
   sodipodi:docname="pardus-gnome-greeter.svg"
   xmlns:inkscape="http://www.inkscape.org/namespaces/inkscape"
   xmlns:sodipodi="http://sodipodi.sourceforge.net/DTD/sodipodi-0.dtd"
   xmlns="http://www.w3.org/2000/svg"
   xmlns:svg="http://www.w3.org/2000/svg">
  <sodipodi:namedview
     id="namedview8455"
     pagecolor="#ffffff"
     bordercolor="#000000"
     borderopacity="0.25"
     inkscape:showpageshadow="2"
     inkscape:pageopacity="0.0"
     inkscape:pagecheckerboard="0"
     inkscape:deskcolor="#d1d1d1"
     inkscape:document-units="px"
     showgrid="false"
     inkscape:zoom="2.0888418"
     inkscape:cx="22.021773"
     inkscape:cy="61.75671"
     inkscape:window-width="1920"
     inkscape:window-height="1009"
     inkscape:window-x="-8"
     inkscape:window-y="-8"
     inkscape:window-maximized="1"
     inkscape:current-layer="layer1" />
  <defs
     id="defs8450" />
  <g
     inkscape:label="Layer 1"
     inkscape:groupmode="layer"
     id="layer1">
    <g
       id="g258"
       transform="matrix(0.26458333,0,0,0.26458333,21.166428,24.804687)">
	<path
   class="st0"
   d="m -48.2,-36.3 c -1.4,0 -2.7,-0.5 -3.7,-1.4 l -0.1,-0.1 -12.3,-12.7 c -1.9,-2.1 -1.9,-5.1 -0.1,-7.3 l 0.3,-0.3 -0.2,-0.2 c -1.9,-2.1 -1.9,-5.1 -0.1,-7.3 l 0.3,-0.3 -0.2,-0.2 c -1.9,-2.1 -1.9,-5.1 -0.1,-7.3 l 12.5,-12.4 c 0.9,-0.9 2.2,-1.4 3.7,-1.4 1.5,0 2.8,0.5 3.8,1.5 l 12.5,12.5 c 2.1,2 2.2,5.3 0.2,7.5 l -0.3,0.3 v 0 c 1.4,1.4 2,3.6 1.3,5.5 v 0 c 0.1,0.5 -0.1,1.2 -0.5,1.7 l -0.8,0.8 c 1.6,1.8 1.9,4.5 0.6,6.7 v 0 c -0.4,0.6 -2.4,2.6 -12.8,13.1 -1.4,0.8 -2.6,1.3 -4,1.3 z"
   id="path226"
   style="opacity:0.3;fill:#ffffff;enable-background:new" />

	<path
   class="st2"
   d="m -32.6,-65.1 -0.4,-0.4 0.6,-0.6 c 1.8,-2 1.7,-5 -0.2,-6.8 l -12.5,-12.5 c -0.9,-0.9 -2.1,-1.4 -3.4,-1.4 -1.2,0 -2.4,0.4 -3.3,1.3 l -12.4,12.3 -0.1,0.1 c -1.6,1.9 -1.6,4.7 0.1,6.6 l 0.6,0.6 -0.5,0.5 -0.1,0.1 c -1.6,1.9 -1.6,4.7 0.1,6.6 l 0.6,0.6 -0.5,0.5 -0.1,0.1 c -1.6,1.9 -1.6,4.7 0.1,6.6 l 12.3,12.7 0.1,0.1 c 0.9,0.8 2.1,1.3 3.4,1.3 1.3,0 2.4,-0.5 3.4,-1.3 C -32,-51 -32,-51 -32,-51.1 c 1.2,-2 0.9,-4.6 -0.7,-6.2 l -0.2,-0.2 1.1,-1.1 c 0.3,-0.3 0.5,-0.8 0.4,-1.3 V -60 c 0.6,-1.8 0.1,-3.8 -1.2,-5.1 z"
   id="path228"
   style="fill:#2f3536" />

	<g
   id="g234">
		<path
   class="st20"
   d="m -45.9,-39.4 v 0 c -1.3,1.2 -3.2,1.2 -4.5,0 L -50.5,-39.5 -63,-52 v 0 c -1.1,-1.2 -1.1,-3.1 0,-4.3 v 0 l 12.3,-12.3 v 0 c 1.3,-1.1 3.2,-1.1 4.3,0.1 l 12.5,12.5 c 1.2,1.2 1.3,3.2 0.1,4.5 v 0 z"
   id="path230"
   style="fill:#edefef" />

		<path
   class="st2"
   d="m -48.2,-38.2 c -0.9,0 -1.8,-0.3 -2.5,-0.9 l -0.1,-0.1 -12.6,-12.6 c -1.2,-1.4 -1.2,-3.4 0,-4.8 l 0.1,-0.1 L -51,-69 c 1.4,-1.2 3.5,-1.2 4.8,0.1 l 12.5,12.5 c 1.4,1.4 1.4,3.5 0.1,5 l -0.1,0.1 -12.2,12.2 c -0.5,0.6 -1.4,0.9 -2.3,0.9 z m -0.4,-30.9 c -0.7,0 -1.3,0.2 -1.9,0.7 l -12.3,12.3 c -1,1.1 -1,2.7 0,3.8 l 12.6,12.6 c 1.1,1 2.8,1 3.9,0 l 0.3,0.2 -0.3,-0.3 12.1,-12.1 c 1,-1.2 1,-2.9 -0.1,-4 l -12.5,-12.5 c -0.3,-0.4 -1,-0.7 -1.8,-0.7 z"
   id="path232"
   style="fill:#2f3536" />

	</g>

	<g
   id="g240">
		<path
   class="st20"
   d="m -45.9,-47.2 v 0 c -1.3,1.2 -3.2,1.2 -4.5,0 l -0.1,-0.1 -12.5,-12.5 v 0 c -1.1,-1.2 -1.1,-3.1 0,-4.3 v 0 l 12.3,-12.3 v 0 c 1.3,-1.1 3.2,-1.1 4.3,0.1 l 12.5,12.5 c 1.2,1.2 1.3,3.2 0.1,4.5 v 0 z"
   id="path236"
   style="fill:#edefef" />

		<path
   class="st2"
   d="m -48.2,-46 c -0.9,0 -1.8,-0.3 -2.5,-0.9 l -0.1,-0.1 -12.6,-12.6 c -1.2,-1.4 -1.2,-3.4 0,-4.8 l 0.1,-0.1 12.3,-12.3 c 1.4,-1.2 3.5,-1.2 4.8,0.1 l 12.6,12.5 c 1.4,1.4 1.4,3.5 0.1,5 l -0.1,0.1 -12.2,12.2 c -0.6,0.6 -1.5,0.9 -2.4,0.9 z m -0.4,-30.9 c -0.7,0 -1.3,0.2 -1.9,0.7 l -12.3,12.3 c -1,1.1 -1,2.7 0,3.8 l 12.6,12.6 c 1.1,1 2.8,1 3.9,0 l 0.3,0.2 -0.3,-0.3 12.1,-12.1 c 1,-1.2 1,-2.9 -0.1,-4 l -12.5,-12.5 c -0.3,-0.5 -1,-0.7 -1.8,-0.7 z"
   id="path238"
   style="fill:#2f3536" />

	</g>

	<path
   class="st20"
   d="m -45.9,-55.1 v 0 c -1.3,1.2 -3.2,1.2 -4.5,0 l -0.1,-0.1 -12.5,-12.5 v 0 c -1.1,-1.2 -1.1,-3.1 0,-4.3 v 0 l 12.3,-12.3 v 0 c 1.3,-1.1 3.2,-1.1 4.3,0.1 l 12.5,12.5 c 1.2,1.2 1.3,3.2 0.1,4.5 v 0 z"
   id="path242"
   style="fill:#edefef" />

	<path
   class="st2"
   d="m -48.2,-53.8 c -0.9,0 -1.8,-0.3 -2.5,-0.9 l -0.1,-0.1 -12.6,-12.6 c -1.2,-1.4 -1.2,-3.4 0,-4.8 l 0.1,-0.1 12.3,-12.3 c 1.4,-1.2 3.5,-1.2 4.8,0.1 l 12.5,12.5 c 1.4,1.4 1.4,3.5 0.1,5 l -0.1,0.1 -12.2,12.2 c -0.5,0.6 -1.4,0.9 -2.3,0.9 z m -0.4,-31 c -0.7,0 -1.3,0.2 -1.9,0.7 l -12.3,12.3 c -1,1.1 -1,2.7 0,3.8 l 12.6,12.6 c 1.1,1 2.8,1 3.9,0 l 0.3,0.2 -0.3,-0.3 12.1,-12.1 c 1,-1.2 1,-2.9 -0.1,-4 l -12.5,-12.5 c -0.3,-0.4 -1,-0.7 -1.8,-0.7 z"
   id="path244"
   style="fill:#2f3536" />

	<g
   id="g256">
		<g
   id="g248">
			<path
   class="st2"
   d="m -36.7,-47 -4.4,-4.6 -4.4,4.5 -4,-18.2 17.3,5.6 -4.3,4.3 3.8,4.4 z m -4.4,-5.7 4.4,4.6 3,-3 -3.8,-4.4 3.9,-3.9 -14.8,-4.8 3.4,15.6 z"
   id="path246"
   style="fill:#2f3536" />

		</g>

		<g
   id="g254">
			<polygon
   class="st21"
   points="-48.1,-63.8 -44.9,-49.2 -41.1,-53.1 -36.7,-48.5 -34.1,-51 -37.9,-55.5 -34.1,-59.2 "
   id="polygon250"
   style="fill:#27afd9" />

			<path
   class="st22"
   d="m -36.7,-48 -4.4,-4.6 -4,4.1 -3.5,-15.8 15.1,4.9 -3.9,3.9 3.8,4.5 z m -4.4,-5.6 4.4,4.6 2.1,-2.1 -3.8,-4.5 3.6,-3.6 -12.9,-4.2 2.9,13.4 z"
   id="path252"
   style="fill:#fffcf5" />

		</g>

	</g>

</g>
  </g>
</svg>
