<?xml version="1.0" ?><svg height="128" id="svg8" version="1.1" viewBox="0 0 33.866666 33.866668" width="128" xmlns="http://www.w3.org/2000/svg" xmlns:cc="http://creativecommons.org/ns#" xmlns:dc="http://purl.org/dc/elements/1.1/" xmlns:inkscape="http://www.inkscape.org/namespaces/inkscape" xmlns:rdf="http://www.w3.org/1999/02/22-rdf-syntax-ns#" xmlns:sodipodi="http://sodipodi.sourceforge.net/DTD/sodipodi-0.dtd" xmlns:svg="http://www.w3.org/2000/svg" xmlns:xlink="http://www.w3.org/1999/xlink"><defs id="defs2"><linearGradient id="linearGradient2202"><stop id="stop2198" offset="0" style="stop-color:#f6f600;stop-opacity:1;"/><stop id="stop2200" offset="1" style="stop-color:#f69134;stop-opacity:1"/></linearGradient><linearGradient gradientTransform="matrix(0.39352029,0,0,0.39352035,-185.27183,93.82285)" gradientUnits="userSpaceOnUse" id="linearGradient3363" x1="12.262755" x2="12.262755" xlink:href="#linearGradient2202" y1="9.0164375" y2="14.680936"/><clipPath clipPathUnits="userSpaceOnUse" id="clipPath5369"><rect height="62.674702" id="rect5371" rx="1.3229166" ry="1.3229166" style="fill:#ffb93f;fill-opacity:1;stroke:none;stroke-width:4.49792;stroke-linecap:butt;stroke-miterlimit:4;stroke-dasharray:none;stroke-dashoffset:0;stroke-opacity:1;paint-order:fill markers stroke" width="75.958" x="58.55875" y="-39.475708"/></clipPath></defs><g id="layer1"><path d="m 11.343477,5.1769548 c -1.076086,0 -4.3203357,1.3158411 -4.9022201,1.5788841 C 5.8593736,7.0188823 5.2131385,7.8398994 4.4798051,9.194972 3.7464728,10.550044 3.157125,12.133552 2.2006039,14.463556 1.2440824,16.79356 1.0210172,21.286395 1.0529008,22.657408 c 0.031884,1.371015 0.1889526,2.441158 1.5936797,3.252177 1.404727,0.811019 2.6466581,1.658444 3.9539037,2.168588 1.307245,0.510146 2.1996989,0.876509 2.8054959,0.366363 0.6057959,-0.510144 1.0046799,-1.402748 1.0046799,-1.402748 0,0 0.573968,-0.796963 -0.5100896,-1.275225 -1.0840576,-0.47826 -1.626007,-0.813432 -1.5781796,-1.307635 0.047827,-0.494202 0.1270476,-0.764789 0.3980677,-0.701021 0.2710133,0.06377 0.9091292,1.21132 3.3641995,1.737406 2.455072,0.526088 4.848675,0.446681 4.848675,0.446681 0,0 2.393603,0.07941 4.848675,-0.446681 2.455071,-0.526086 3.093188,-1.673641 3.3642,-1.737406 0.271015,-0.06377 0.35024,0.206819 0.398068,0.701021 0.04783,0.494203 -0.494122,0.829376 -1.57818,1.307635 -1.084058,0.478262 -0.51009,1.275225 -0.51009,1.275225 0,0 0.398884,0.892604 1.00468,1.402748 0.605798,0.510146 1.498251,0.143783 2.805496,-0.366363 1.307247,-0.510144 2.549176,-1.357569 3.953904,-2.168588 1.404728,-0.811019 1.561788,-1.881161 1.59368,-3.252177 0.03188,-1.371012 -0.191181,-5.863849 -1.147702,-8.193852 -0.956525,-2.330004 -1.54587,-3.913512 -2.279203,-5.268584 -0.733333,-1.3550726 -1.379568,-2.1760897 -1.961452,-2.4391331 -0.581884,-0.263043 -3.826134,-1.5788841 -4.90222,-1.5788841 -1.076086,0 -1.394294,0.7496353 -1.394294,0.7496353 l -0.374817,0.8292488 c 0,0 -2.520634,-0.4788708 -3.804209,-0.4795573 -1.283574,-6.865e-4 -3.837281,0.4795573 -3.837281,0.4795573 L 12.737771,5.9265901 c 0,0 -0.318208,-0.7496353 -1.394294,-0.7496353 z m 0.116955,9.9481682 c 0.01315,-9.9e-5 0.0263,-9.9e-5 0.03945,0 1.568888,0 2.840723,1.372775 2.840723,3.066178 0,1.693403 -1.271835,3.066177 -2.840723,3.066177 -1.5688878,0 -2.8407226,-1.372774 -2.8407229,-3.066177 -1.501e-4,-1.676911 1.2478101,-3.042888 2.8012689,-3.066178 z m 10.906348,0 c 0.01315,-9.9e-5 0.0263,-9.9e-5 0.03945,0 1.553459,0.02329 2.801419,1.389267 2.801269,3.066178 0,1.693403 -1.271835,3.066177 -2.840723,3.066177 -1.568888,0 -2.840723,-1.372774 -2.840723,-3.066177 0,-1.693403 1.271835,-3.066178 2.840723,-3.066178 z" id="path5373" style="fill:#00a1ff;fill-opacity:1;stroke:none;stroke-width:6.13236;stroke-linecap:butt;stroke-miterlimit:4;stroke-dasharray:none;stroke-dashoffset:0;stroke-opacity:1;paint-order:fill markers stroke"/></g></svg>