<?xml version="1.0" encoding="UTF-8"?><svg id="katman_2" xmlns="http://www.w3.org/2000/svg" viewBox="0 0 352 228.91"><defs><style>.cls-1{fill:#f4f7f9;}.cls-2,.cls-3{fill:#fff;}.cls-4{fill:#4f4f4f;}.cls-5{stroke-width:2.87px;}.cls-5,.cls-6,.cls-7,.cls-8,.cls-9,.cls-10,.cls-11{fill:none;}.cls-5,.cls-7,.cls-8,.cls-9,.cls-11{stroke:#f4f7f9;stroke-linecap:round;stroke-linejoin:round;}.cls-12{stroke-width:4.72px;}.cls-12,.cls-6,.cls-3,.cls-13,.cls-14,.cls-10{stroke-miterlimit:10;}.cls-12,.cls-3,.cls-14,.cls-10{stroke:#1c1c1c;}.cls-12,.cls-14{fill:#2d2d2d;}.cls-6{stroke:#fafcff;stroke-width:.68px;}.cls-7{stroke-width:2.37px;}.cls-13{fill:#21aed8;stroke:#fffcf3;}.cls-8{stroke-width:2.41px;}.cls-9{stroke-width:2.12px;}.cls-14{stroke-width:1.74px;}.cls-10{stroke-width:3.48px;}.cls-11{stroke-width:3.03px;}</style></defs><g id="svg8"><g><g><path class="cls-14" d="M130.64,185.04H16.94c-4.2,0-7.7-3.5-7.7-7.7V77.84c0-4.2,3.5-7.7,7.7-7.7h114c4.2,0,7.7,3.5,7.7,7.7v99.7c-.2,4.2-3.7,7.5-8,7.5Z"/><g><path class="cls-4" d="M72.04,181.44H17.04c-2.3,0-4.2-2.7-4.2-6.2h0c0-3.5,1.8-6.2,4.2-6.2h55c2.3,0,4.2,2.7,4.2,6.2h0c-.1,3.5-1.8,6.2-4.2,6.2Z"/><g><circle class="cls-6" cx="19.54" cy="174.44" r="2.4"/><line class="cls-6" x1="21.54" y1="176.04" x2="23.94" y2="178.54"/></g></g><polyline class="cls-9" points="87.54 171.44 91.44 175.24 87.44 179.14"/><line class="cls-5" x1="37.54" y1="85.44" x2="68.14" y2="85.44"/><line class="cls-8" x1="104.54" y1="85.14" x2="126.14" y2="85.14"/><line class="cls-8" x1="104.54" y1="101.14" x2="126.14" y2="101.14"/><line class="cls-8" x1="104.54" y1="112.54" x2="126.14" y2="112.54"/><line class="cls-8" x1="104.54" y1="123.94" x2="126.14" y2="123.94"/><line class="cls-8" x1="104.54" y1="135.34" x2="126.14" y2="135.34"/><line class="cls-8" x1="104.54" y1="158.14" x2="126.14" y2="158.14"/><line class="cls-8" x1="104.54" y1="146.74" x2="126.14" y2="146.74"/><line class="cls-7" x1="37.54" y1="103.64" x2="58.44" y2="103.64"/><line class="cls-11" x1="37.54" y1="121.84" x2="71.54" y2="121.84"/><path class="cls-2" d="M18.44,78.64h11.2c.8,0,1.2,.4,1.2,1.2v11.2c0,.8-.4,1.2-1.2,1.2h-11.2c-.8,0-1.2-.4-1.2-1.2v-11.2c.2-.9,.9-1.2,1.2-1.2Z"/><path class="cls-2" d="M18.44,96.84h11.2c.8,0,1.2,.4,1.2,1.2v11.2c0,.8-.4,1.2-1.2,1.2h-11.2c-.8,0-1.2-.4-1.2-1.2v-11.2c.2-.9,.9-1.2,1.2-1.2Z"/><line class="cls-7" x1="37.54" y1="139.94" x2="58.44" y2="139.94"/><path class="cls-2" d="M18.44,133.14h11.2c.8,0,1.2,.4,1.2,1.2v11.2c0,.8-.4,1.2-1.2,1.2h-11.2c-.8,0-1.2-.4-1.2-1.2v-11.2c.2-.9,.9-1.2,1.2-1.2Z"/><path class="cls-2" d="M18.44,114.94h11.2c.8,0,1.2,.4,1.2,1.2v11.2c0,.8-.4,1.2-1.2,1.2h-11.2c-.8,0-1.2-.4-1.2-1.2v-11.2c.2-.8,.9-1.2,1.2-1.2Z"/><circle class="cls-1" cx="91.14" cy="84.74" r="6.8"/><path class="cls-2" d="M94.34,98.74v4.8c0,.8-.4,1.2-1.2,1.2h-4.8c-.8,0-1.2-.4-1.2-1.2v-4.8c0-.8,.4-1.2,1.2-1.2h4.8c.8,0,1.2,.8,1.2,1.2Z"/><path class="cls-2" d="M94.34,110.14v4.8c0,.8-.4,1.2-1.2,1.2h-4.8c-.8,0-1.2-.4-1.2-1.2v-4.8c0-.8,.4-1.2,1.2-1.2h4.8c.8,0,1.2,.4,1.2,1.2Z"/><path class="cls-2" d="M94.34,121.54v4.8c0,.8-.4,1.2-1.2,1.2h-4.8c-.8,0-1.2-.4-1.2-1.2v-4.8c0-.8,.4-1.2,1.2-1.2h4.8c.8,0,1.2,.4,1.2,1.2Z"/><path class="cls-2" d="M94.34,132.94v4.8c0,.8-.4,1.2-1.2,1.2h-4.8c-.8,0-1.2-.4-1.2-1.2v-4.8c0-.8,.4-1.2,1.2-1.2h4.8c.8,0,1.2,.4,1.2,1.2Z"/><path class="cls-2" d="M94.34,144.34v4.8c0,.8-.4,1.2-1.2,1.2h-4.8c-.8,0-1.2-.4-1.2-1.2v-4.8c0-.8,.4-1.2,1.2-1.2h4.8c.8,0,1.2,.4,1.2,1.2Z"/><path class="cls-2" d="M94.34,155.74v4.8c0,.8-.4,1.2-1.2,1.2h-4.8c-.8,0-1.2-.4-1.2-1.2v-4.8c0-.8,.4-1.2,1.2-1.2h4.8c.8,0,1.2,.4,1.2,1.2Z"/></g><g><path class="cls-10" d="M347.94,219.64H4.24c-1.4,0-2.5-1.1-2.5-2.5V4.24c0-1.4,1.1-2.5,2.5-2.5H347.74c1.4,0,2.5,1.1,2.5,2.5V217.04c0,1.4-1.1,2.6-2.3,2.6Z"/><path class="cls-12" d="M349.64,192.64H2.54v24.4c0,1.4,1.1,2.5,2.5,2.5H347.14c1.4,0,2.5-1.1,2.5-2.5v-24.4Z"/><path class="cls-2" d="M33.54,197.9h13.7c1,0,1.5,.5,1.5,1.5v13.7c0,1-.5,1.5-1.5,1.5h-13.7c-1,0-1.5-.5-1.5-1.5v-13.7c.1-1.2,1-1.5,1.5-1.5Z"/><path class="cls-2" d="M56.44,197.9h13.7c1,0,1.5,.5,1.5,1.5v13.7c0,1-.5,1.5-1.5,1.5h-13.7c-1,0-1.5-.5-1.5-1.5v-13.7c.1-1.2,1-1.5,1.5-1.5Z"/><path class="cls-2" d="M79.24,197.9h13.8c1,0,1.5,.5,1.5,1.5v13.7c0,1-.5,1.5-1.5,1.5h-13.8c-1,0-1.5-.5-1.5-1.5v-13.7c.2-1.2,1.1-1.5,1.5-1.5Z"/><path class="cls-2" d="M102.24,197.9h13.7c1,0,1.5,.5,1.5,1.5v13.7c0,1-.5,1.5-1.5,1.5h-13.7c-1,0-1.5-.5-1.5-1.5v-13.7c.1-1.2,1.1-1.5,1.5-1.5Z"/><path class="cls-2" d="M125.14,197.9h13.7c1,0,1.5,.5,1.5,1.5v13.7c0,1-.5,1.5-1.5,1.5h-13.7c-1,0-1.5-.5-1.5-1.5v-13.7c.1-1.2,1.1-1.5,1.5-1.5Z"/><path class="cls-2" d="M308.14,209.95h-41.3c-1,0-1.5-.4-1.5-1.3v-4.8c0-.8,.5-1.3,1.5-1.3h41.3c1,0,1.5,.4,1.5,1.3v4.8c0,.8-.5,1.3-1.5,1.3Z"/><g><path class="cls-2" d="M343.44,209.85h-4.8c-.8,0-1.2-.4-1.2-1.2v-4.8c0-.8,.4-1.2,1.2-1.2h4.8c.8,0,1.2,.4,1.2,1.2v4.8c0,.9-.8,1.2-1.2,1.2Z"/><path class="cls-2" d="M332.24,209.85h-4.8c-.8,0-1.2-.4-1.2-1.2v-4.8c0-.8,.4-1.2,1.2-1.2h4.8c.8,0,1.2,.4,1.2,1.2v4.8c0,.9-.4,1.2-1.2,1.2Z"/><path class="cls-2" d="M321.04,209.85h-4.8c-.8,0-1.2-.4-1.2-1.2v-4.8c0-.8,.4-1.2,1.2-1.2h4.8c.8,0,1.2,.4,1.2,1.2v4.8c0,.9-.4,1.2-1.2,1.2Z"/></g><path class="cls-2" d="M116.14,216.54h-14c-.4,0-.8-.2-.8-.6,0-.3,.3-.6,.8-.6h14c.4,0,.8,.2,.8,.6-.1,.3-.4,.6-.8,.6Z"/><path class="cls-4" d="M9.39,196.93h15.4c1.1,0,1.7,.6,1.7,1.7v15.4c0,1.1-.6,1.7-1.7,1.7H9.39c-1.1,0-1.7-.6-1.7-1.7v-15.4c.1-1.1,1.1-1.7,1.7-1.7Z"/><g><path class="cls-2" d="M12.94,207.5c1.7,0,3.3,1.7,3.3,3.3,0,1.7-1.7,3.3-3.3,3.3-1.7,0-3.3-1.7-3.3-3.3s1.6-3.3,3.3-3.3Z"/><circle class="cls-2" cx="12.94" cy="201.7" r="3.3"/><path class="cls-2" d="M21.24,207.5c1.7,0,3.3,1.7,3.3,3.3,0,1.7-1.7,3.3-3.3,3.3-1.7,0-3.3-1.7-3.3-3.3s1.7-3.3,3.3-3.3Z"/><circle class="cls-2" cx="21.24" cy="201.7" r="3.3"/></g><g><polygon class="cls-3" points="39.22 211 16.12 203.5 21.42 227.8 27.42 221.6 33.72 228.2 38.72 223.2 33.32 216.9 39.22 211"/><polygon class="cls-13" points="37.42 211.4 17.32 204.9 21.92 225.9 27.42 220.3 33.72 226.9 37.42 223.2 32.02 216.8 37.42 211.4"/></g></g></g></g></svg>