<?xml version="1.0" encoding="UTF-8"?><svg id="katman_2" xmlns="http://www.w3.org/2000/svg" viewBox="0 0 352.11 230.66"><defs><style>.cls-1{fill:#fafcff;}.cls-2,.cls-3{fill:#fff;}.cls-4,.cls-5{fill:#1c1c1c;}.cls-6{fill:#606060;}.cls-7{fill:#4f4f4f;}.cls-8{stroke:#fafcff;stroke-width:.68px;}.cls-8,.cls-9{fill:none;}.cls-8,.cls-9,.cls-3,.cls-10,.cls-5,.cls-11{stroke-miterlimit:10;}.cls-9{stroke:#f7f8f9;stroke-linecap:round;stroke-width:1.67px;}.cls-3,.cls-5,.cls-11{stroke:#1c1c1c;}.cls-10{fill:#21aed8;stroke:#fffcf3;}.cls-5{stroke-width:3.48px;}.cls-11{fill:#2d2d2d;stroke-width:3.74px;}</style></defs><g id="svg8"><g><path class="cls-5" d="M347.87,219.54H4.37c-1.4,0-2.5-1.1-2.5-2.5V4.24c0-1.4,1.1-2.5,2.5-2.5H347.87c1.4,0,2.5,1.1,2.5,2.5V217.04c-.2,1.4-1.3,2.5-2.5,2.5Z"/><path class="cls-11" d="M28.77,219.44V1.94H4.37c-1.4,0-2.5,.7-2.5,1.6V217.94c0,.9,1.1,1.6,2.5,1.6l24.4-.1h0Z"/><g><path class="cls-4" d="M346.07,1.74H6.37c-2.3,0-4.1,1.8-4.1,4.1v13.3H350.07V5.84c0-2.1-1.9-4.1-4-4.1Z"/><path class="cls-2" d="M196.67,13.44h-41.3c-1,0-1.5-.5-1.5-1.5V6.14c0-1,.5-1.5,1.5-1.5h41.3c1,0,1.5,.5,1.5,1.5v5.8c0,1-.5,1.5-1.5,1.5Z"/><g><g><path class="cls-2" d="M342.87,12.64h-4.8c-.8,0-1.2-.4-1.2-1.2V6.64c0-.8,.4-1.2,1.2-1.2h4.8c.8,0,1.2,.4,1.2,1.2v4.8c0,.8-.8,1.2-1.2,1.2Z"/><path class="cls-2" d="M331.67,12.64h-4.8c-.8,0-1.2-.4-1.2-1.2V6.64c0-.8,.4-1.2,1.2-1.2h4.8c.8,0,1.2,.4,1.2,1.2v4.8c0,.8-.3,1.2-1.2,1.2Z"/><path class="cls-2" d="M320.57,12.64h-4.8c-.8,0-1.2-.4-1.2-1.2V6.64c0-.8,.4-1.2,1.2-1.2h4.8c.8,0,1.2,.4,1.2,1.2v4.8c-.1,.8-.5,1.2-1.2,1.2Z"/></g><line class="cls-9" x1="8.07" y1="9.04" x2="29.77" y2="9.04"/></g></g><path class="cls-2" d="M6.27,132.04v-13.7c0-1,.5-1.5,1.5-1.5h13.7c1,0,1.5,.5,1.5,1.5v13.7c0,1-.5,1.5-1.5,1.5H7.77c-.9-.1-1.5-1-1.5-1.5Z"/><path class="cls-2" d="M6.27,109.14v-13.7c0-1,.5-1.5,1.5-1.5h13.7c1,0,1.5,.5,1.5,1.5v13.7c0,1-.5,1.5-1.5,1.5H7.77c-.9-.1-1.5-1-1.5-1.5Z"/><path class="cls-2" d="M6.27,86.24v-13.7c0-1,.5-1.5,1.5-1.5h13.7c1,0,1.5,.5,1.5,1.5v13.7c0,1-.5,1.5-1.5,1.5H7.77c-.9-.1-1.5-1-1.5-1.5Z"/><path class="cls-2" d="M6.27,63.34v-13.7c0-1,.5-1.5,1.5-1.5h13.7c1,0,1.5,.5,1.5,1.5v13.7c0,1-.5,1.5-1.5,1.5H7.77c-.9-.1-1.5-1.1-1.5-1.5Z"/><path class="cls-2" d="M6.27,40.44v-13.7c0-1,.5-1.5,1.5-1.5h13.7c1,0,1.5,.5,1.5,1.5v13.7c0,1-.5,1.5-1.5,1.5H7.77c-.9-.1-1.5-1.1-1.5-1.5Z"/><path class="cls-7" d="M5.27,213.04v-15.4c0-1.1,.6-1.7,1.7-1.7h15.4c1.1,0,1.7,.6,1.7,1.7v15.4c0,1.1-.6,1.7-1.7,1.7H6.97c-1.1,0-1.7-1.1-1.7-1.7Z"/><g><path class="cls-2" d="M15.97,209.64c0-1.7,1.7-3.3,3.3-3.3,1.7,0,3.3,1.7,3.3,3.3,0,1.7-1.7,3.3-3.3,3.3s-3.3-1.7-3.3-3.3Z"/><circle class="cls-2" cx="10.27" cy="209.64" r="3.3"/><path class="cls-2" d="M15.97,201.34c0-1.7,1.7-3.3,3.3-3.3,1.7,0,3.3,1.7,3.3,3.3,0,1.7-1.7,3.3-3.3,3.3s-3.3-1.7-3.3-3.3Z"/><circle class="cls-2" cx="10.27" cy="201.34" r="3.3"/></g><g><circle class="cls-2" cx="172.87" cy="207.64" r="3.1"/><circle class="cls-7" cx="181.57" cy="207.64" r="2.1"/></g><path class="cls-6" d="M98.27,112.04h-12.7c-2,0-3.7-1.7-3.7-3.7v-13.9c0-2,1.7-3.7,3.7-3.7h12.7c2,0,3.7,1.7,3.7,3.7v13.9c.3,2-1.5,3.7-3.7,3.7Z"/><path class="cls-6" d="M126.67,112.04h-12.7c-2,0-3.7-1.7-3.7-3.7v-13.9c0-2,1.7-3.7,3.7-3.7h12.7c2,0,3.7,1.7,3.7,3.7v13.9c-.1,2-1.7,3.7-3.7,3.7Z"/><path class="cls-6" d="M154.87,112.04h-12.7c-2,0-3.7-1.7-3.7-3.7v-13.9c0-2,1.7-3.7,3.7-3.7h12.7c2,0,3.7,1.7,3.7,3.7v13.9c0,2-1.7,3.7-3.7,3.7Z"/><path class="cls-6" d="M183.07,112.04h-12.7c-2,0-3.7-1.7-3.7-3.7v-13.9c0-2,1.7-3.7,3.7-3.7h12.7c2,0,3.7,1.7,3.7,3.7v13.9c-.1,2-1.7,3.7-3.7,3.7Z"/><path class="cls-6" d="M211.17,112.04h-12.7c-2,0-3.7-1.7-3.7-3.7v-13.9c0-2,1.7-3.7,3.7-3.7h12.7c2,0,3.7,1.7,3.7,3.7v13.9c0,2-1.7,3.7-3.7,3.7Z"/><path class="cls-6" d="M239.27,112.04h-12.7c-2,0-3.7-1.7-3.7-3.7v-13.9c0-2,1.7-3.7,3.7-3.7h12.7c2,0,3.7,1.7,3.7,3.7v13.9c.1,2-1.4,3.7-3.7,3.7Z"/><path class="cls-6" d="M267.57,112.04h-12.7c-2,0-3.7-1.7-3.7-3.7v-13.9c0-2,1.7-3.7,3.7-3.7h12.7c2,0,3.7,1.7,3.7,3.7v13.9c0,2-1.6,3.7-3.7,3.7Z"/><path class="cls-6" d="M98.27,140.74h-12.7c-2,0-3.7-1.7-3.7-3.7v-13.9c0-2,1.7-3.7,3.7-3.7h12.7c2,0,3.7,1.7,3.7,3.7v13.9c.3,2-1.5,3.7-3.7,3.7Z"/><path class="cls-6" d="M126.67,140.74h-12.7c-2,0-3.7-1.7-3.7-3.7v-13.9c0-2,1.7-3.7,3.7-3.7h12.7c2,0,3.7,1.7,3.7,3.7v13.9c-.1,2-1.7,3.7-3.7,3.7Z"/><path class="cls-6" d="M154.87,140.74h-12.7c-2,0-3.7-1.7-3.7-3.7v-13.9c0-2,1.7-3.7,3.7-3.7h12.7c2,0,3.7,1.7,3.7,3.7v13.9c0,2-1.7,3.7-3.7,3.7Z"/><path class="cls-6" d="M183.07,140.74h-12.7c-2,0-3.7-1.7-3.7-3.7v-13.9c0-2,1.7-3.7,3.7-3.7h12.7c2,0,3.7,1.7,3.7,3.7v13.9c-.1,2-1.7,3.7-3.7,3.7Z"/><path class="cls-6" d="M211.17,140.74h-12.7c-2,0-3.7-1.7-3.7-3.7v-13.9c0-2,1.7-3.7,3.7-3.7h12.7c2,0,3.7,1.7,3.7,3.7v13.9c0,2-1.7,3.7-3.7,3.7Z"/><path class="cls-6" d="M239.27,140.74h-12.7c-2,0-3.7-1.7-3.7-3.7v-13.9c0-2,1.7-3.7,3.7-3.7h12.7c2,0,3.7,1.7,3.7,3.7v13.9c.1,2-1.4,3.7-3.7,3.7Z"/><path class="cls-6" d="M267.57,140.74h-12.7c-2,0-3.7-1.7-3.7-3.7v-13.9c0-2,1.7-3.7,3.7-3.7h12.7c2,0,3.7,1.7,3.7,3.7v13.9c0,2-1.6,3.7-3.7,3.7Z"/><path class="cls-6" d="M98.27,169.34h-12.7c-2,0-3.7-1.7-3.7-3.7v-13.9c0-2,1.7-3.7,3.7-3.7h12.7c2,0,3.7,1.7,3.7,3.7v13.9c.3,2-1.5,3.7-3.7,3.7Z"/><path class="cls-6" d="M126.67,169.34h-12.7c-2,0-3.7-1.7-3.7-3.7v-13.9c0-2,1.7-3.7,3.7-3.7h12.7c2,0,3.7,1.7,3.7,3.7v13.9c-.1,2-1.7,3.7-3.7,3.7Z"/><path class="cls-6" d="M154.87,169.34h-12.7c-2,0-3.7-1.7-3.7-3.7v-13.9c0-2,1.7-3.7,3.7-3.7h12.7c2,0,3.7,1.7,3.7,3.7v13.9c0,2-1.7,3.7-3.7,3.7Z"/><path class="cls-6" d="M183.07,169.34h-12.7c-2,0-3.7-1.7-3.7-3.7v-13.9c0-2,1.7-3.7,3.7-3.7h12.7c2,0,3.7,1.7,3.7,3.7v13.9c-.1,2-1.7,3.7-3.7,3.7Z"/><path class="cls-6" d="M211.17,169.34h-12.7c-2,0-3.7-1.7-3.7-3.7v-13.9c0-2,1.7-3.7,3.7-3.7h12.7c2,0,3.7,1.7,3.7,3.7v13.9c0,2-1.7,3.7-3.7,3.7Z"/><path class="cls-6" d="M239.27,169.34h-12.7c-2,0-3.7-1.7-3.7-3.7v-13.9c0-2,1.7-3.7,3.7-3.7h12.7c2,0,3.7,1.7,3.7,3.7v13.9c.1,2-1.4,3.7-3.7,3.7Z"/><path class="cls-6" d="M267.57,169.34h-12.7c-2,0-3.7-1.7-3.7-3.7v-13.9c0-2,1.7-3.7,3.7-3.7h12.7c2,0,3.7,1.7,3.7,3.7v13.9c0,2-1.6,3.7-3.7,3.7Z"/><g><path class="cls-7" d="M217.57,36.24h-82c-3.5,0-6.2-2.7-6.2-6.2h0c0-3.5,2.7-6.2,6.2-6.2h82c3.5,0,6.2,2.7,6.2,6.2h0c.1,3.5-2.7,6.2-6.2,6.2Z"/><g><circle class="cls-8" cx="136.17" cy="29.74" r="2.4"/><line class="cls-8" x1="138.07" y1="31.34" x2="140.57" y2="33.84"/></g></g><path class="cls-6" d="M98.27,198.14h-12.7c-2,0-3.7-1.7-3.7-3.7v-13.9c0-2,1.7-3.7,3.7-3.7h12.7c2,0,3.7,1.7,3.7,3.7v13.9c.3,2-1.5,3.7-3.7,3.7Z"/><path class="cls-6" d="M126.67,198.14h-12.7c-2,0-3.7-1.7-3.7-3.7v-13.9c0-2,1.7-3.7,3.7-3.7h12.7c2,0,3.7,1.7,3.7,3.7v13.9c-.1,2-1.7,3.7-3.7,3.7Z"/><path class="cls-6" d="M154.87,198.14h-12.7c-2,0-3.7-1.7-3.7-3.7v-13.9c0-2,1.7-3.7,3.7-3.7h12.7c2,0,3.7,1.7,3.7,3.7v13.9c0,2-1.7,3.7-3.7,3.7Z"/><path class="cls-6" d="M183.07,198.14h-12.7c-2,0-3.7-1.7-3.7-3.7v-13.9c0-2,1.7-3.7,3.7-3.7h12.7c2,0,3.7,1.7,3.7,3.7v13.9c-.1,2-1.7,3.7-3.7,3.7Z"/><path class="cls-6" d="M211.17,198.14h-12.7c-2,0-3.7-1.7-3.7-3.7v-13.9c0-2,1.7-3.7,3.7-3.7h12.7c2,0,3.7,1.7,3.7,3.7v13.9c0,2-1.7,3.7-3.7,3.7Z"/><path class="cls-6" d="M239.27,198.14h-12.7c-2,0-3.7-1.7-3.7-3.7v-13.9c0-2,1.7-3.7,3.7-3.7h12.7c2,0,3.7,1.7,3.7,3.7v13.9c.1,2-1.4,3.7-3.7,3.7Z"/><path class="cls-6" d="M267.57,198.14h-12.7c-2,0-3.7-1.7-3.7-3.7v-13.9c0-2,1.7-3.7,3.7-3.7h12.7c2,0,3.7,1.7,3.7,3.7v13.9c0,2-1.6,3.7-3.7,3.7Z"/><g><rect class="cls-1" x="112.07" y="44.54" width="66.3" height="37.3"/><rect class="cls-1" x="181.27" y="46.34" width="59.9" height="33.6"/></g><g><polygon class="cls-3" points="38.07 212.74 14.97 205.24 20.27 229.54 26.27 223.34 32.57 229.94 37.57 224.94 32.17 218.64 38.07 212.74"/><polygon class="cls-10" points="36.27 213.14 16.17 206.64 20.77 227.64 26.27 222.04 32.57 228.64 36.27 224.94 30.87 218.54 36.27 213.14"/></g></g></g></svg>