<?xml version="1.0" encoding="UTF-8" standalone="no"?>
<svg
   id="katman_2"
   viewBox="0 0 360 240"
   version="1.1"
   sodipodi:docname="layout_img_10_1.svg"
   width="360"
   height="240"
   inkscape:version="1.3 (0e150ed6c4, 2023-07-21)"
   xmlns:inkscape="http://www.inkscape.org/namespaces/inkscape"
   xmlns:sodipodi="http://sodipodi.sourceforge.net/DTD/sodipodi-0.dtd"
   xmlns="http://www.w3.org/2000/svg"
   xmlns:svg="http://www.w3.org/2000/svg">
  <sodipodi:namedview
     id="namedview39"
     pagecolor="#ffffff"
     bordercolor="#000000"
     borderopacity="0.25"
     inkscape:showpageshadow="2"
     inkscape:pageopacity="0.0"
     inkscape:pagecheckerboard="0"
     inkscape:deskcolor="#d1d1d1"
     inkscape:zoom="2"
     inkscape:cx="121.75"
     inkscape:cy="151.75"
     inkscape:window-width="2192"
     inkscape:window-height="1167"
     inkscape:window-x="0"
     inkscape:window-y="0"
     inkscape:window-maximized="1"
     inkscape:current-layer="katman_2" />
  <defs
     id="defs1">
    <style
       id="style1">.cls-1{fill:#f4f7f9;}.cls-2,.cls-3{fill:#fff;}.cls-4{fill:#4f4f4f;}.cls-5{stroke-width:2.87px;}.cls-5,.cls-6,.cls-7,.cls-8,.cls-9,.cls-10,.cls-11{fill:none;}.cls-5,.cls-7,.cls-8,.cls-9,.cls-11{stroke:#f4f7f9;stroke-linecap:round;stroke-linejoin:round;}.cls-12{stroke-width:4.72px;}.cls-12,.cls-6,.cls-3,.cls-13,.cls-14,.cls-10{stroke-miterlimit:10;}.cls-12,.cls-3,.cls-14,.cls-10{stroke:#1c1c1c;}.cls-12,.cls-14{fill:#2d2d2d;}.cls-6{stroke:#fafcff;stroke-width:.68px;}.cls-7{stroke-width:2.37px;}.cls-13{fill:#21aed8;stroke:#fffcf3;}.cls-8{stroke-width:2.41px;}.cls-9{stroke-width:2.12px;}.cls-14{stroke-width:1.74px;}.cls-10{stroke-width:3.48px;}.cls-11{stroke-width:3.03px;}</style>
  </defs>
  <g
     id="svg8"
     transform="matrix(1.022599,0,0,1.0485623,0.02257606,-0.01604203)">
    <g
       id="g39">
      <g
         id="g21">
        <path
           class="cls-14"
           d="M 130.64,185.04 H 16.94 c -4.2,0 -7.7,-3.5 -7.7,-7.7 v -99.5 c 0,-4.2 3.5,-7.7 7.7,-7.7 h 114 c 4.2,0 7.7,3.5 7.7,7.7 v 99.7 c -0.2,4.2 -3.7,7.5 -8,7.5 z"
           id="path1" />
        <g
           id="g3">
          <path
             class="cls-4"
             d="m 72.04,181.44 h -55 c -2.3,0 -4.2,-2.7 -4.2,-6.2 v 0 c 0,-3.5 1.8,-6.2 4.2,-6.2 h 55 c 2.3,0 4.2,2.7 4.2,6.2 v 0 c -0.1,3.5 -1.8,6.2 -4.2,6.2 z"
             id="path2" />
          <g
             id="g2">
            <circle
               class="cls-6"
               cx="19.540001"
               cy="174.44"
               r="2.4000001"
               id="circle2" />
            <line
               class="cls-6"
               x1="21.540001"
               y1="176.03999"
               x2="23.940001"
               y2="178.53999"
               id="line2" />
          </g>
        </g>
        <polyline
           class="cls-9"
           points="87.54 171.44 91.44 175.24 87.44 179.14"
           id="polyline3" />
        <line
           class="cls-5"
           x1="37.540001"
           y1="85.440002"
           x2="68.139999"
           y2="85.440002"
           id="line3" />
        <line
           class="cls-8"
           x1="104.54"
           y1="85.139999"
           x2="126.14"
           y2="85.139999"
           id="line4" />
        <line
           class="cls-8"
           x1="104.54"
           y1="101.14"
           x2="126.14"
           y2="101.14"
           id="line5" />
        <line
           class="cls-8"
           x1="104.54"
           y1="112.54"
           x2="126.14"
           y2="112.54"
           id="line6" />
        <line
           class="cls-8"
           x1="104.54"
           y1="123.94"
           x2="126.14"
           y2="123.94"
           id="line7" />
        <line
           class="cls-8"
           x1="104.54"
           y1="135.34"
           x2="126.14"
           y2="135.34"
           id="line8" />
        <line
           class="cls-8"
           x1="104.54"
           y1="158.14"
           x2="126.14"
           y2="158.14"
           id="line9" />
        <line
           class="cls-8"
           x1="104.54"
           y1="146.74001"
           x2="126.14"
           y2="146.74001"
           id="line10" />
        <line
           class="cls-7"
           x1="37.540001"
           y1="103.64"
           x2="58.439999"
           y2="103.64"
           id="line11" />
        <line
           class="cls-11"
           x1="37.540001"
           y1="121.84"
           x2="71.540001"
           y2="121.84"
           id="line12" />
        <path
           class="cls-2"
           d="m 18.44,78.64 h 11.2 c 0.8,0 1.2,0.4 1.2,1.2 v 11.2 c 0,0.8 -0.4,1.2 -1.2,1.2 h -11.2 c -0.8,0 -1.2,-0.4 -1.2,-1.2 v -11.2 c 0.2,-0.9 0.9,-1.2 1.2,-1.2 z"
           id="path12" />
        <path
           class="cls-2"
           d="m 18.44,96.84 h 11.2 c 0.8,0 1.2,0.4 1.2,1.2 v 11.2 c 0,0.8 -0.4,1.2 -1.2,1.2 h -11.2 c -0.8,0 -1.2,-0.4 -1.2,-1.2 v -11.2 c 0.2,-0.9 0.9,-1.2 1.2,-1.2 z"
           id="path13" />
        <line
           class="cls-7"
           x1="37.540001"
           y1="139.94"
           x2="58.439999"
           y2="139.94"
           id="line13" />
        <path
           class="cls-2"
           d="m 18.44,133.14 h 11.2 c 0.8,0 1.2,0.4 1.2,1.2 v 11.2 c 0,0.8 -0.4,1.2 -1.2,1.2 h -11.2 c -0.8,0 -1.2,-0.4 -1.2,-1.2 v -11.2 c 0.2,-0.9 0.9,-1.2 1.2,-1.2 z"
           id="path14" />
        <path
           class="cls-2"
           d="m 18.44,114.94 h 11.2 c 0.8,0 1.2,0.4 1.2,1.2 v 11.2 c 0,0.8 -0.4,1.2 -1.2,1.2 h -11.2 c -0.8,0 -1.2,-0.4 -1.2,-1.2 v -11.2 c 0.2,-0.8 0.9,-1.2 1.2,-1.2 z"
           id="path15" />
        <circle
           class="cls-1"
           cx="91.139999"
           cy="84.739998"
           r="6.8000002"
           id="circle15" />
        <path
           class="cls-2"
           d="m 94.34,98.74 v 4.8 c 0,0.8 -0.4,1.2 -1.2,1.2 h -4.8 c -0.8,0 -1.2,-0.4 -1.2,-1.2 v -4.8 c 0,-0.8 0.4,-1.2 1.2,-1.2 h 4.8 c 0.8,0 1.2,0.8 1.2,1.2 z"
           id="path16" />
        <path
           class="cls-2"
           d="m 94.34,110.14 v 4.8 c 0,0.8 -0.4,1.2 -1.2,1.2 h -4.8 c -0.8,0 -1.2,-0.4 -1.2,-1.2 v -4.8 c 0,-0.8 0.4,-1.2 1.2,-1.2 h 4.8 c 0.8,0 1.2,0.4 1.2,1.2 z"
           id="path17" />
        <path
           class="cls-2"
           d="m 94.34,121.54 v 4.8 c 0,0.8 -0.4,1.2 -1.2,1.2 h -4.8 c -0.8,0 -1.2,-0.4 -1.2,-1.2 v -4.8 c 0,-0.8 0.4,-1.2 1.2,-1.2 h 4.8 c 0.8,0 1.2,0.4 1.2,1.2 z"
           id="path18" />
        <path
           class="cls-2"
           d="m 94.34,132.94 v 4.8 c 0,0.8 -0.4,1.2 -1.2,1.2 h -4.8 c -0.8,0 -1.2,-0.4 -1.2,-1.2 v -4.8 c 0,-0.8 0.4,-1.2 1.2,-1.2 h 4.8 c 0.8,0 1.2,0.4 1.2,1.2 z"
           id="path19" />
        <path
           class="cls-2"
           d="m 94.34,144.34 v 4.8 c 0,0.8 -0.4,1.2 -1.2,1.2 h -4.8 c -0.8,0 -1.2,-0.4 -1.2,-1.2 v -4.8 c 0,-0.8 0.4,-1.2 1.2,-1.2 h 4.8 c 0.8,0 1.2,0.4 1.2,1.2 z"
           id="path20" />
        <path
           class="cls-2"
           d="m 94.34,155.74 v 4.8 c 0,0.8 -0.4,1.2 -1.2,1.2 h -4.8 c -0.8,0 -1.2,-0.4 -1.2,-1.2 v -4.8 c 0,-0.8 0.4,-1.2 1.2,-1.2 h 4.8 c 0.8,0 1.2,0.4 1.2,1.2 z"
           id="path21" />
      </g>
      <g
         id="g38">
        <path
           class="cls-10"
           d="M 347.94,219.64 H 4.24 c -1.4,0 -2.5,-1.1 -2.5,-2.5 V 4.24 c 0,-1.4 1.1,-2.5 2.5,-2.5 h 343.5 c 1.4,0 2.5,1.1 2.5,2.5 v 212.8 c 0,1.4 -1.1,2.6 -2.3,2.6 z"
           id="path22" />
        <path
           class="cls-12"
           d="M 349.64,192.64 H 2.54 v 24.4 c 0,1.4 1.1,2.5 2.5,2.5 h 342.1 c 1.4,0 2.5,-1.1 2.5,-2.5 z"
           id="path23" />
        <path
           class="cls-2"
           d="m 33.54,197.9 h 13.7 c 1,0 1.5,0.5 1.5,1.5 v 13.7 c 0,1 -0.5,1.5 -1.5,1.5 h -13.7 c -1,0 -1.5,-0.5 -1.5,-1.5 v -13.7 c 0.1,-1.2 1,-1.5 1.5,-1.5 z"
           id="path24" />
        <path
           class="cls-2"
           d="m 56.44,197.9 h 13.7 c 1,0 1.5,0.5 1.5,1.5 v 13.7 c 0,1 -0.5,1.5 -1.5,1.5 h -13.7 c -1,0 -1.5,-0.5 -1.5,-1.5 v -13.7 c 0.1,-1.2 1,-1.5 1.5,-1.5 z"
           id="path25" />
        <path
           class="cls-2"
           d="m 79.24,197.9 h 13.8 c 1,0 1.5,0.5 1.5,1.5 v 13.7 c 0,1 -0.5,1.5 -1.5,1.5 h -13.8 c -1,0 -1.5,-0.5 -1.5,-1.5 v -13.7 c 0.2,-1.2 1.1,-1.5 1.5,-1.5 z"
           id="path26" />
        <path
           class="cls-2"
           d="m 102.24,197.9 h 13.7 c 1,0 1.5,0.5 1.5,1.5 v 13.7 c 0,1 -0.5,1.5 -1.5,1.5 h -13.7 c -1,0 -1.5,-0.5 -1.5,-1.5 v -13.7 c 0.1,-1.2 1.1,-1.5 1.5,-1.5 z"
           id="path27" />
        <path
           class="cls-2"
           d="m 125.14,197.9 h 13.7 c 1,0 1.5,0.5 1.5,1.5 v 13.7 c 0,1 -0.5,1.5 -1.5,1.5 h -13.7 c -1,0 -1.5,-0.5 -1.5,-1.5 v -13.7 c 0.1,-1.2 1.1,-1.5 1.5,-1.5 z"
           id="path28" />
        <path
           class="cls-2"
           d="m 308.14,209.95 h -41.3 c -1,0 -1.5,-0.4 -1.5,-1.3 v -4.8 c 0,-0.8 0.5,-1.3 1.5,-1.3 h 41.3 c 1,0 1.5,0.4 1.5,1.3 v 4.8 c 0,0.8 -0.5,1.3 -1.5,1.3 z"
           id="path29" />
        <g
           id="g32">
          <path
             class="cls-2"
             d="m 343.44,209.85 h -4.8 c -0.8,0 -1.2,-0.4 -1.2,-1.2 v -4.8 c 0,-0.8 0.4,-1.2 1.2,-1.2 h 4.8 c 0.8,0 1.2,0.4 1.2,1.2 v 4.8 c 0,0.9 -0.8,1.2 -1.2,1.2 z"
             id="path30" />
          <path
             class="cls-2"
             d="m 332.24,209.85 h -4.8 c -0.8,0 -1.2,-0.4 -1.2,-1.2 v -4.8 c 0,-0.8 0.4,-1.2 1.2,-1.2 h 4.8 c 0.8,0 1.2,0.4 1.2,1.2 v 4.8 c 0,0.9 -0.4,1.2 -1.2,1.2 z"
             id="path31" />
          <path
             class="cls-2"
             d="m 321.04,209.85 h -4.8 c -0.8,0 -1.2,-0.4 -1.2,-1.2 v -4.8 c 0,-0.8 0.4,-1.2 1.2,-1.2 h 4.8 c 0.8,0 1.2,0.4 1.2,1.2 v 4.8 c 0,0.9 -0.4,1.2 -1.2,1.2 z"
             id="path32" />
        </g>
        <path
           class="cls-2"
           d="m 116.14,216.54 h -14 c -0.4,0 -0.8,-0.2 -0.8,-0.6 0,-0.3 0.3,-0.6 0.8,-0.6 h 14 c 0.4,0 0.8,0.2 0.8,0.6 -0.1,0.3 -0.4,0.6 -0.8,0.6 z"
           id="path33" />
        <path
           class="cls-4"
           d="m 9.39,196.93 h 15.4 c 1.1,0 1.7,0.6 1.7,1.7 v 15.4 c 0,1.1 -0.6,1.7 -1.7,1.7 H 9.39 c -1.1,0 -1.7,-0.6 -1.7,-1.7 v -15.4 c 0.1,-1.1 1.1,-1.7 1.7,-1.7 z"
           id="path34" />
        <g
           id="g36">
          <path
             class="cls-2"
             d="m 12.94,207.5 c 1.7,0 3.3,1.7 3.3,3.3 0,1.7 -1.7,3.3 -3.3,3.3 -1.7,0 -3.3,-1.7 -3.3,-3.3 0,-1.6 1.6,-3.3 3.3,-3.3 z"
             id="path35" />
          <circle
             class="cls-2"
             cx="12.94"
             cy="201.7"
             r="3.3"
             id="circle35" />
          <path
             class="cls-2"
             d="m 21.24,207.5 c 1.7,0 3.3,1.7 3.3,3.3 0,1.7 -1.7,3.3 -3.3,3.3 -1.7,0 -3.3,-1.7 -3.3,-3.3 0,-1.6 1.7,-3.3 3.3,-3.3 z"
             id="path36" />
          <circle
             class="cls-2"
             cx="21.24"
             cy="201.7"
             r="3.3"
             id="circle36" />
        </g>
        <g
           id="g37">
          <polygon
             class="cls-3"
             points="27.42,221.6 33.72,228.2 38.72,223.2 33.32,216.9 39.22,211 16.12,203.5 21.42,227.8 "
             id="polygon36" />
          <polygon
             class="cls-13"
             points="27.42,220.3 33.72,226.9 37.42,223.2 32.02,216.8 37.42,211.4 17.32,204.9 21.92,225.9 "
             id="polygon37" />
        </g>
      </g>
    </g>
  </g>
</svg>
