<?xml version="1.0" encoding="utf-8"?>
<!-- Generator: Adobe Illustrator 27.0.1, SVG Export Plug-In . SVG Version: 6.00 Build 0)  -->
<svg version="1.1"
	 id="svg8" xmlns:rdf="http://www.w3.org/1999/02/22-rdf-syntax-ns#" xmlns:cc="http://creativecommons.org/ns#" xmlns:svg="http://www.w3.org/2000/svg" xmlns:dc="http://purl.org/dc/elements/1.1/" xmlns:sodipodi="http://sodipodi.sourceforge.net/DTD/sodipodi-0.dtd" xmlns:inkscape="http://www.inkscape.org/namespaces/inkscape"
	 xmlns="http://www.w3.org/2000/svg" xmlns:xlink="http://www.w3.org/1999/xlink" x="0px" y="0px" viewBox="0 0 360 240"
	 style="enable-background:new 0 0 360 240;" xml:space="preserve">
<style type="text/css">
	.st0{fill:#1C1C1C;stroke:#1C1C1C;stroke-width:3.4845;stroke-miterlimit:10;}
	.st1{fill:#2D2D2D;stroke:#1C1C1C;stroke-width:3.7388;stroke-miterlimit:10;}
	.st2{fill:#1C1C1C;}
	.st3{fill:#FAFCFF;}
	.st4{fill:none;stroke:#1C1C1C;stroke-width:1.9386;stroke-miterlimit:10;}
	.st5{fill:#2D2D2D;}
	.st6{fill:none;stroke:#1C1C1C;stroke-width:0.4023;stroke-miterlimit:10;}
	.st7{fill:#FFFFFF;}
	.st8{fill:none;stroke:#F7F8F9;stroke-width:1.6655;stroke-linecap:round;stroke-miterlimit:10;}
	.st9{fill:none;stroke:#1C1C1C;stroke-width:3.4845;stroke-miterlimit:10;}
	.st10{fill:#4F4F4F;}
	.st11{fill:#606060;}
	.st12{fill:#F7F8F9;}
	.st13{fill:#1C1C1C;stroke:#FFFFFF;stroke-width:0.25;stroke-miterlimit:10;}
	.st14{fill:#B3B6B7;}
	.st15{fill:#1C1C1C;stroke:#FFFFFF;stroke-width:0.3222;stroke-miterlimit:10;}
	.st16{fill:none;stroke:#FAFCFF;stroke-width:0.6786;stroke-miterlimit:10;}
	.st17{fill:#FFFFFF;stroke:#1C1C1C;stroke-miterlimit:10;}
	.st18{fill:#21AED8;stroke:#FFFCF3;stroke-miterlimit:10;}
</style>
<path class="st0" d="M-29.2,228.9h-343.5c-1.4,0-2.5-1.1-2.5-2.5V13.6c0-1.4,1.1-2.5,2.5-2.5h343.5c1.4,0,2.5,1.1,2.5,2.5v212.8
	C-26.8,227.8-27.9,228.9-29.2,228.9z"/>
<path class="st1" d="M-348.3,228.8V11.3h-24.4c-1.4,0-2.5,0.7-2.5,1.6v214.4c0,0.9,1.1,1.6,2.5,1.6L-348.3,228.8L-348.3,228.8z"/>
<path class="st2" d="M-31.1,11.1h-339.7c-2.3,0-4.1,1.8-4.1,4.1v13.3h347.8V15.2C-27.1,13.1-28.9,11.1-31.1,11.1z"/>
<g>
	<path class="st3" d="M-90.2,200.1h-224.6c-6.7,0-11.9-5.5-11.9-11.9V72.3c0-6.7,5.5-11.9,11.9-11.9h224.6c6.7,0,11.9,5.5,11.9,11.9
		v115.9C-78.2,194.6-83.7,200.1-90.2,200.1z"/>
	<path class="st3" d="M-25,64.3h-24.8c-6.1,0-11.3,5-11.3,11.3v109.3c0,6.1,5,11.3,11.3,11.3H-25V64.3z"/>
</g>
<path class="st2" d="M-1395.3-690.6h-189c-1.3,0-2.3,1-2.3,2.3v2.3h193.5v-2.4C-1393-689.6-1394.1-690.6-1395.3-690.6z"/>
<sodipodi:namedview  bordercolor="#666666" borderopacity="1" gridtolerance="10" guidetolerance="10" id="namedview19" inkscape:current-layer="svg8" inkscape:cx="53.409311" inkscape:cy="108.91772" inkscape:pageopacity="0" inkscape:pageshadow="2" inkscape:window-height="1047" inkscape:window-maximized="0" inkscape:window-width="1914" inkscape:window-x="3" inkscape:window-y="3" inkscape:zoom="4.4500587" objecttolerance="10" pagecolor="#ffffff" showgrid="false">
	</sodipodi:namedview>
<path class="st4" d="M-1394.4-569.4h-191.1c-0.8,0-1.4-0.6-1.4-1.4v-118.5c0-0.8,0.6-1.4,1.4-1.4h191.1c0.8,0,1.4,0.6,1.4,1.4v118.4
	C-1393-570.1-1393.6-569.4-1394.4-569.4z"/>
<path class="st5" d="M-1578.5-569.4h-7c-0.8,0-1.4-0.6-1.4-1.4v-115.4h8.3L-1578.5-569.4L-1578.5-569.4z"/>
<path class="st6" d="M-1578.5-689.7v119.9c0,0.2-0.1,0.3-0.3,0.3h-7.8c-0.2,0-0.3-0.1-0.3-0.3v-119.9c0-0.2,0.1-0.3,0.3-0.3h7.8
	C-1578.6-690-1578.5-689.8-1578.5-689.7z"/>
<g>
	<circle class="st7" cx="-1583.3" cy="-574.9" r="0.4"/>
	<circle class="st7" cx="-1582.2" cy="-574.9" r="0.4"/>
	<circle class="st7" cx="-1581.2" cy="-574.9" r="0.4"/>
	<circle class="st7" cx="-1583.3" cy="-573.9" r="0.4"/>
	<circle class="st7" cx="-1582.2" cy="-573.9" r="0.4"/>
	<circle class="st7" cx="-1581.2" cy="-573.9" r="0.4"/>
	<circle class="st7" cx="-1583.3" cy="-572.9" r="0.4"/>
	<circle class="st7" cx="-1582.2" cy="-572.9" r="0.4"/>
	<circle class="st7" cx="-1581.2" cy="-572.9" r="0.4"/>
</g>
<path class="st7" d="M-1581.2-653.1v2.8c0,0.2-0.1,0.3-0.3,0.3h-2.8c-0.2,0-0.3-0.1-0.3-0.3v-2.8c0-0.2,0.1-0.3,0.3-0.3h2.8
	C-1581.3-653.4-1581.2-653.2-1581.2-653.1z"/>
<path class="st7" d="M-1581.2-646.1v2.8c0,0.2-0.1,0.3-0.3,0.3h-2.8c-0.2,0-0.3-0.1-0.3-0.3v-2.8c0-0.2,0.1-0.3,0.3-0.3h2.8
	C-1581.3-646.4-1581.2-646.3-1581.2-646.1z"/>
<path class="st7" d="M-1581.2-639.2v2.8c0,0.2-0.1,0.3-0.3,0.3h-2.8c-0.2,0-0.3-0.1-0.3-0.3v-2.8c0-0.2,0.1-0.3,0.3-0.3h2.8
	C-1581.3-639.4-1581.2-639.3-1581.2-639.2z"/>
<path class="st7" d="M-1581.2-660.1v2.8c0,0.2-0.1,0.3-0.3,0.3h-2.8c-0.2,0-0.3-0.1-0.3-0.3v-2.8c0-0.2,0.1-0.3,0.3-0.3h2.8
	C-1581.3-660.3-1581.2-660.2-1581.2-660.1z"/>
<path class="st7" d="M-1581.2-667v2.8c0,0.2-0.1,0.3-0.3,0.3h-2.8c-0.2,0-0.3-0.1-0.3-0.3v-2.8c0-0.2,0.1-0.3,0.3-0.3h2.8
	C-1581.3-667.3-1581.2-667.2-1581.2-667z"/>
<path class="st7" d="M-1581.2-674v2.8c0,0.2-0.1,0.3-0.3,0.3h-2.8c-0.2,0-0.3-0.1-0.3-0.3v-2.8c0-0.2,0.1-0.3,0.3-0.3h2.8
	C-1581.3-674.3-1581.2-674.2-1581.2-674z"/>
<path class="st7" d="M-1581.2-681v2.8c0,0.2-0.1,0.3-0.3,0.3h-2.8c-0.2,0-0.3-0.1-0.3-0.3v-2.8c0-0.2,0.1-0.3,0.3-0.3h2.8
	C-1581.3-681.3-1581.2-681.1-1581.2-681z"/>
<path class="st7" d="M-1485.7-687.7h-8.5c-0.2,0-0.3-0.1-0.3-0.3v-1.2c0-0.2,0.1-0.3,0.3-0.3h8.5c0.2,0,0.3,0.1,0.3,0.3v1.2
	C-1485.5-687.8-1485.6-687.7-1485.7-687.7z"/>
<g>
	<path class="st7" d="M-1396-687.7h-1.2c-0.2,0-0.3-0.1-0.3-0.3v-1.2c0-0.2,0.1-0.3,0.3-0.3h1.2c0.2,0,0.3,0.1,0.3,0.3v1.2
		C-1395.7-687.8-1395.8-687.7-1396-687.7z"/>
	<path class="st7" d="M-1398.8-687.7h-1.2c-0.2,0-0.3-0.1-0.3-0.3v-1.2c0-0.2,0.1-0.3,0.3-0.3h1.2c0.2,0,0.3,0.1,0.3,0.3v1.2
		C-1398.5-687.8-1398.6-687.7-1398.8-687.7z"/>
	<path class="st7" d="M-1401.5-687.7h-1.2c-0.2,0-0.3-0.1-0.3-0.3v-1.2c0-0.2,0.1-0.3,0.3-0.3h1.2c0.2,0,0.3,0.1,0.3,0.3v1.2
		C-1401.3-687.8-1401.4-687.7-1401.5-687.7z"/>
</g>
<path class="st1" d="M-2247.4,228.8V11.3h-24.4c-1.4,0-2.5,0.7-2.5,1.6v214.4c0,0.9,1.1,1.6,2.5,1.6L-2247.4,228.8L-2247.4,228.8z"
	/>
<path class="st2" d="M-1930.1,11.1h-339.7c-2.3,0-4.1,1.8-4.1,4.1v13.3h347.8V15.2C-1926.1,13.1-1927.9,11.1-1930.1,11.1z"/>
<path class="st7" d="M-2079.4,22.8h-41.3c-1,0-1.5-0.5-1.5-1.5v-5.8c0-1,0.5-1.5,1.5-1.5h41.3c1,0,1.5,0.5,1.5,1.5v5.8
	C-2077.9,22.3-2078.4,22.8-2079.4,22.8z"/>
<g>
	<g>
		<path class="st7" d="M-1933.2,22h-4.8c-0.8,0-1.2-0.4-1.2-1.2V16c0-0.8,0.4-1.2,1.2-1.2h4.8c0.8,0,1.2,0.4,1.2,1.2v4.8
			C-1932,21.6-1932.8,22-1933.2,22z"/>
		<path class="st7" d="M-1944.4,22h-4.8c-0.8,0-1.2-0.4-1.2-1.2V16c0-0.8,0.4-1.2,1.2-1.2h4.8c0.8,0,1.2,0.4,1.2,1.2v4.8
			C-1943.2,21.6-1943.6,22-1944.4,22z"/>
		<path class="st7" d="M-1955.6,22h-4.8c-0.8,0-1.2-0.4-1.2-1.2V16c0-0.8,0.4-1.2,1.2-1.2h4.8c0.8,0,1.2,0.4,1.2,1.2v4.8
			C-1954.4,21.6-1954.8,22-1955.6,22z"/>
	</g>
	<line class="st8" x1="-2268.1" y1="18.4" x2="-2246.4" y2="18.4"/>
</g>
<path class="st9" d="M-1928.2,228.9h-343.5c-1.4,0-2.5-1.1-2.5-2.5V13.6c0-1.4,1.1-2.5,2.5-2.5h343.5c1.4,0,2.5,1.1,2.5,2.5v212.8
	C-1925.8,227.8-1927,228.9-1928.2,228.9z"/>
<path class="st7" d="M-2269.8,141.4v-13.7c0-1,0.5-1.5,1.5-1.5h13.7c1,0,1.5,0.5,1.5,1.5v13.7c0,1-0.5,1.5-1.5,1.5h-13.7
	C-2269.2,142.8-2269.8,141.9-2269.8,141.4z"/>
<path class="st7" d="M-2269.8,118.5v-13.7c0-1,0.5-1.5,1.5-1.5h13.7c1,0,1.5,0.5,1.5,1.5v13.7c0,1-0.5,1.5-1.5,1.5h-13.7
	C-2269.2,119.9-2269.8,119-2269.8,118.5z"/>
<path class="st7" d="M-2269.8,95.6V81.9c0-1,0.5-1.5,1.5-1.5h13.7c1,0,1.5,0.5,1.5,1.5v13.7c0,1-0.5,1.5-1.5,1.5h-13.7
	C-2269.2,97-2269.8,96.1-2269.8,95.6z"/>
<path class="st7" d="M-2269.8,72.7V59c0-1,0.5-1.5,1.5-1.5h13.7c1,0,1.5,0.5,1.5,1.5v13.7c0,1-0.5,1.5-1.5,1.5h-13.7
	C-2269.2,74.1-2269.8,73.1-2269.8,72.7z"/>
<path class="st7" d="M-2269.8,49.8V36.1c0-1,0.5-1.5,1.5-1.5h13.7c1,0,1.5,0.5,1.5,1.5v13.7c0,1-0.5,1.5-1.5,1.5h-13.7
	C-2269.2,51.2-2269.8,50.2-2269.8,49.8z"/>
<g>
	<path class="st7" d="M-2260.1,219c0-1.7,1.7-3.3,3.3-3.3c1.7,0,3.3,1.7,3.3,3.3c0,1.7-1.7,3.3-3.3,3.3S-2260.1,220.6-2260.1,219z"
		/>
	
		<ellipse transform="matrix(0.9999 -1.020347e-02 1.020347e-02 0.9999 -2.3524 -23.1065)" class="st7" cx="-2265.7" cy="219" rx="3.3" ry="3.3"/>
	<path class="st7" d="M-2260.1,210.7c0-1.7,1.7-3.3,3.3-3.3c1.7,0,3.3,1.7,3.3,3.3c0,1.7-1.7,3.3-3.3,3.3
		S-2260.1,212.3-2260.1,210.7z"/>
	
		<ellipse transform="matrix(0.9999 -1.020343e-02 1.020343e-02 0.9999 -2.2677 -23.1069)" class="st7" cx="-2265.7" cy="210.7" rx="3.3" ry="3.3"/>
</g>
<path class="st0" d="M-1169.1,226.9h-343.5c-1.4,0-2.5-1.1-2.5-2.5V11.6c0-1.4,1.1-2.5,2.5-2.5h343.5c1.4,0,2.5,1.1,2.5,2.5v212.8
	C-1166.7,225.8-1167.8,226.9-1169.1,226.9z"/>
<path class="st1" d="M-1488.2,226.8V9.3h-24.4c-1.4,0-2.5,0.7-2.5,1.6v214.4c0,0.9,1.1,1.6,2.5,1.6L-1488.2,226.8L-1488.2,226.8z"/>
<g>
	<path class="st2" d="M-1171,9.1h-339.7c-2.3,0-4.1,1.8-4.1,4.1v13.3h347.8V13.2C-1167,11.1-1168.8,9.1-1171,9.1z"/>
	<path class="st7" d="M-1320.3,20.8h-41.3c-1,0-1.5-0.5-1.5-1.5v-5.8c0-1,0.5-1.5,1.5-1.5h41.3c1,0,1.5,0.5,1.5,1.5v5.8
		C-1318.8,20.3-1319.3,20.8-1320.3,20.8z"/>
	<g>
		<g>
			<path class="st7" d="M-1174.1,20h-4.8c-0.8,0-1.2-0.4-1.2-1.2V14c0-0.8,0.4-1.2,1.2-1.2h4.8c0.8,0,1.2,0.4,1.2,1.2v4.8
				C-1172.9,19.6-1173.7,20-1174.1,20z"/>
			<path class="st7" d="M-1185.3,20h-4.8c-0.8,0-1.2-0.4-1.2-1.2V14c0-0.8,0.4-1.2,1.2-1.2h4.8c0.8,0,1.2,0.4,1.2,1.2v4.8
				C-1184.1,19.6-1184.5,20-1185.3,20z"/>
			<path class="st7" d="M-1196.5,20h-4.8c-0.8,0-1.2-0.4-1.2-1.2V14c0-0.8,0.4-1.2,1.2-1.2h4.8c0.8,0,1.2,0.4,1.2,1.2v4.8
				C-1195.3,19.6-1195.7,20-1196.5,20z"/>
		</g>
		<line class="st8" x1="-1508.9" y1="16.4" x2="-1487.3" y2="16.4"/>
	</g>
</g>
<path class="st7" d="M-1510.5,139.4v-13.7c0-1,0.5-1.5,1.5-1.5h13.7c1,0,1.5,0.5,1.5,1.5v13.7c0,1-0.5,1.5-1.5,1.5h-13.7
	C-1510.1,140.8-1510.5,139.9-1510.5,139.4z"/>
<path class="st7" d="M-1510.5,116.5v-13.7c0-1,0.5-1.5,1.5-1.5h13.7c1,0,1.5,0.5,1.5,1.5v13.7c0,1-0.5,1.5-1.5,1.5h-13.7
	C-1510.1,117.9-1510.5,117-1510.5,116.5z"/>
<path class="st7" d="M-1510.5,93.6V79.9c0-1,0.5-1.5,1.5-1.5h13.7c1,0,1.5,0.5,1.5,1.5v13.7c0,1-0.5,1.5-1.5,1.5h-13.7
	C-1510.1,95-1510.5,94.1-1510.5,93.6z"/>
<path class="st7" d="M-1510.5,70.7V57c0-1,0.5-1.5,1.5-1.5h13.7c1,0,1.5,0.5,1.5,1.5v13.7c0,1-0.5,1.5-1.5,1.5h-13.7
	C-1510.1,72.1-1510.5,71.1-1510.5,70.7z"/>
<path class="st7" d="M-1510.5,47.8V34.1c0-1,0.5-1.5,1.5-1.5h13.7c1,0,1.5,0.5,1.5,1.5v13.7c0,1-0.5,1.5-1.5,1.5h-13.7
	C-1510.1,49.2-1510.5,48.2-1510.5,47.8z"/>
<path class="st10" d="M-1511.7,220.4V205c0-1.1,0.6-1.7,1.7-1.7h15.4c1.1,0,1.7,0.6,1.7,1.7v15.4c0,1.1-0.6,1.7-1.7,1.7h-15.4
	C-1511.1,222.1-1511.7,221-1511.7,220.4z"/>
<g>
	<path class="st7" d="M-1500.9,217c0-1.7,1.7-3.3,3.3-3.3c1.7,0,3.3,1.7,3.3,3.3c0,1.7-1.7,3.3-3.3,3.3S-1500.9,218.6-1500.9,217z"
		/>
	<circle class="st7" cx="-1506.7" cy="217" r="3.3"/>
	<path class="st7" d="M-1500.9,208.7c0-1.7,1.7-3.3,3.3-3.3c1.7,0,3.3,1.7,3.3,3.3c0,1.7-1.7,3.3-3.3,3.3
		S-1500.9,210.3-1500.9,208.7z"/>
	<circle class="st7" cx="-1506.7" cy="208.7" r="3.3"/>
</g>
<rect x="-1476.7" y="34.9" class="st3" width="272.8" height="153.3"/>
<rect x="-1191.8" y="42.3" class="st3" width="26.9" height="138.4"/>
<g>
	<path class="st11" d="M-1418.5,220.8h-12.7c-2,0-3.7-1.7-3.7-3.7v-13.9c0-2,1.7-3.7,3.7-3.7h12.7c2,0,3.7,1.7,3.7,3.7v13.9
		C-1414.7,219.1-1416.4,220.8-1418.5,220.8z"/>
	<path class="st11" d="M-1390.2,220.8h-12.7c-2,0-3.7-1.7-3.7-3.7v-13.9c0-2,1.7-3.7,3.7-3.7h12.7c2,0,3.7,1.7,3.7,3.7v13.9
		C-1386.5,219.1-1388.2,220.8-1390.2,220.8z"/>
	<path class="st11" d="M-1362,220.8h-12.7c-2,0-3.7-1.7-3.7-3.7v-13.9c0-2,1.7-3.7,3.7-3.7h12.7c2,0,3.7,1.7,3.7,3.7v13.9
		C-1358.4,219.1-1360.1,220.8-1362,220.8z"/>
	<path class="st11" d="M-1333.9,220.8h-12.7c-2,0-3.7-1.7-3.7-3.7v-13.9c0-2,1.7-3.7,3.7-3.7h12.7c2,0,3.7,1.7,3.7,3.7v13.9
		C-1330.2,219.1-1331.9,220.8-1333.9,220.8z"/>
	<path class="st11" d="M-1305.7,220.8h-12.7c-2,0-3.7-1.7-3.7-3.7v-13.9c0-2,1.7-3.7,3.7-3.7h12.7c2,0,3.7,1.7,3.7,3.7v13.9
		C-1302,219.1-1303.7,220.8-1305.7,220.8z"/>
	<path class="st11" d="M-1277.5,220.8h-12.7c-2,0-3.7-1.7-3.7-3.7v-13.9c0-2,1.7-3.7,3.7-3.7h12.7c2,0,3.7,1.7,3.7,3.7v13.9
		C-1273.9,219.1-1275.4,220.8-1277.5,220.8z"/>
	<path class="st11" d="M-1249.4,220.8h-12.7c-2,0-3.7-1.7-3.7-3.7v-13.9c0-2,1.7-3.7,3.7-3.7h12.7c2,0,3.7,1.7,3.7,3.7v13.9
		C-1245.5,219.1-1247.2,220.8-1249.4,220.8z"/>
</g>
<path class="st1" d="M32.7,228.8V11.3H8.2c-1.4,0-2.5,0.7-2.5,1.6v214.4c0,0.9,1.1,1.6,2.5,1.6L32.7,228.8L32.7,228.8z"/>
<path class="st2" d="M349.9,11.1H10.3c-2.3,0-4.1,1.8-4.1,4.1v13.3H354V15.2C353.9,13.1,352.2,11.1,349.9,11.1z"/>
<path class="st7" d="M200.6,22.8h-41.3c-1,0-1.5-0.5-1.5-1.5v-5.8c0-1,0.5-1.5,1.5-1.5h41.3c1,0,1.5,0.5,1.5,1.5v5.8
	C202.1,22.3,201.6,22.8,200.6,22.8z"/>
<g>
	<path class="st7" d="M346.9,22h-4.8c-0.8,0-1.2-0.4-1.2-1.2V16c0-0.8,0.4-1.2,1.2-1.2h4.8c0.8,0,1.2,0.4,1.2,1.2v4.8
		C348,21.6,347.2,22,346.9,22z"/>
	<path class="st7" d="M335.7,22h-4.8c-0.8,0-1.2-0.4-1.2-1.2V16c0-0.8,0.4-1.2,1.2-1.2h4.8c0.8,0,1.2,0.4,1.2,1.2v4.8
		C336.9,21.6,336.4,22,335.7,22z"/>
	<path class="st7" d="M324.4,22h-4.8c-0.8,0-1.2-0.4-1.2-1.2V16c0-0.8,0.4-1.2,1.2-1.2h4.8c0.8,0,1.2,0.4,1.2,1.2v4.8
		C325.7,21.6,325.2,22,324.4,22z"/>
</g>
<path class="st9" d="M351.9,228.9H8.3c-1.4,0-2.5-1.1-2.5-2.5V13.6c0-1.4,1.1-2.5,2.5-2.5h343.5c1.4,0,2.5,1.1,2.5,2.5v212.8
	C354.2,227.8,353.2,228.9,351.9,228.9z"/>
<path class="st7" d="M10.4,141.3v-13.7c0-1,0.5-1.5,1.5-1.5h13.7c1,0,1.5,0.5,1.5,1.5v13.7c0,1-0.5,1.5-1.5,1.5H11.9
	C10.9,142.7,10.4,141.8,10.4,141.3z"/>
<path class="st7" d="M10.4,118.4v-13.7c0-1,0.5-1.5,1.5-1.5h13.7c1,0,1.5,0.5,1.5,1.5v13.7c0,1-0.5,1.5-1.5,1.5H11.9
	C10.9,119.8,10.4,118.9,10.4,118.4z"/>
<path class="st7" d="M10.4,95.5V81.8c0-1,0.5-1.5,1.5-1.5h13.7c1,0,1.5,0.5,1.5,1.5v13.7c0,1-0.5,1.5-1.5,1.5H11.9
	C10.9,96.9,10.4,96,10.4,95.5z"/>
<path class="st7" d="M10.4,72.6V58.9c0-1,0.5-1.5,1.5-1.5h13.7c1,0,1.5,0.5,1.5,1.5v13.7c0,1-0.5,1.5-1.5,1.5H11.9
	C10.9,74,10.4,73,10.4,72.6z"/>
<path class="st7" d="M10.4,49.7V36c0-1,0.5-1.5,1.5-1.5h13.7c1,0,1.5,0.5,1.5,1.5v13.7c0,1-0.5,1.5-1.5,1.5H11.9
	C10.9,51.1,10.4,50.1,10.4,49.7z"/>
<g>
	<path class="st7" d="M20.1,218.9c0-1.7,1.7-3.3,3.3-3.3c1.7,0,3.3,1.7,3.3,3.3c0,1.7-1.7,3.3-3.3,3.3S20.1,220.5,20.1,218.9z"/>
	<circle class="st7" cx="14.3" cy="218.9" r="3.3"/>
	<path class="st7" d="M20.1,210.6c0-1.7,1.7-3.3,3.3-3.3c1.7,0,3.3,1.7,3.3,3.3c0,1.7-1.7,3.3-3.3,3.3S20.1,212.2,20.1,210.6z"/>
	<circle class="st7" cx="14.3" cy="210.6" r="3.3"/>
</g>
<path class="st12" d="M33.6,19.2H12.1c-0.5,0-0.8-0.4-0.8-0.8s0.4-0.8,0.8-0.8h21.6c0.5,0,0.8,0.4,0.8,0.8
	C34.4,18.8,34.1,19.2,33.6,19.2z"/>
<path class="st1" d="M-1107.3,228.8V11.3h-24.4c-1.4,0-2.5,0.7-2.5,1.6v214.4c0,0.9,1.1,1.6,2.5,1.6L-1107.3,228.8L-1107.3,228.8z"
	/>
<path class="st2" d="M-790.2,11.1h-339.7c-2.3,0-4.1,1.8-4.1,4.1v13.3h347.8V15.2C-786.2,13.1-788,11.1-790.2,11.1z"/>
<path class="st7" d="M-939.5,22.8h-41.3c-1,0-1.5-0.5-1.5-1.5v-5.8c0-1,0.5-1.5,1.5-1.5h41.3c1,0,1.5,0.5,1.5,1.5v5.8
	C-938,22.3-938.5,22.8-939.5,22.8z"/>
<g>
	<path class="st7" d="M-793.2,22h-4.8c-0.8,0-1.2-0.4-1.2-1.2V16c0-0.8,0.4-1.2,1.2-1.2h4.8c0.8,0,1.2,0.4,1.2,1.2v4.8
		C-792,21.6-792.8,22-793.2,22z"/>
	<path class="st7" d="M-804.5,22h-4.8c-0.8,0-1.2-0.4-1.2-1.2V16c0-0.8,0.4-1.2,1.2-1.2h4.8c0.8,0,1.2,0.4,1.2,1.2v4.8
		C-803.2,21.6-803.7,22-804.5,22z"/>
	<path class="st7" d="M-815.7,22h-4.8c-0.8,0-1.2-0.4-1.2-1.2V16c0-0.8,0.4-1.2,1.2-1.2h4.8c0.8,0,1.2,0.4,1.2,1.2v4.8
		C-814.5,21.6-814.8,22-815.7,22z"/>
</g>
<path class="st9" d="M-788.2,228.9h-343.6c-1.4,0-2.5-1.1-2.5-2.5V13.6c0-1.4,1.1-2.5,2.5-2.5h343.5c1.4,0,2.5,1.1,2.5,2.5v212.8
	C-785.8,227.8-787,228.9-788.2,228.9z"/>
<path class="st7" d="M-1129.7,141.3v-13.7c0-1,0.5-1.5,1.5-1.5h13.7c1,0,1.5,0.5,1.5,1.5v13.7c0,1-0.5,1.5-1.5,1.5h-13.7
	C-1129.2,142.7-1129.7,141.8-1129.7,141.3z"/>
<path class="st7" d="M-1129.7,118.4v-13.7c0-1,0.5-1.5,1.5-1.5h13.7c1,0,1.5,0.5,1.5,1.5v13.7c0,1-0.5,1.5-1.5,1.5h-13.7
	C-1129.2,119.8-1129.7,118.9-1129.7,118.4z"/>
<path class="st7" d="M-1129.7,95.5V81.8c0-1,0.5-1.5,1.5-1.5h13.7c1,0,1.5,0.5,1.5,1.5v13.7c0,1-0.5,1.5-1.5,1.5h-13.7
	C-1129.2,96.9-1129.7,96-1129.7,95.5z"/>
<path class="st7" d="M-1129.7,72.6V58.9c0-1,0.5-1.5,1.5-1.5h13.7c1,0,1.5,0.5,1.5,1.5v13.7c0,1-0.5,1.5-1.5,1.5h-13.7
	C-1129.2,74-1129.7,73-1129.7,72.6z"/>
<path class="st7" d="M-1129.7,49.7V36c0-1,0.5-1.5,1.5-1.5h13.7c1,0,1.5,0.5,1.5,1.5v13.7c0,1-0.5,1.5-1.5,1.5h-13.7
	C-1129.2,51.1-1129.7,50.1-1129.7,49.7z"/>
<g>
	<path class="st7" d="M-1120.1,218.9c0-1.7,1.7-3.3,3.3-3.3c1.7,0,3.3,1.7,3.3,3.3c0,1.7-1.7,3.3-3.3,3.3
		S-1120.1,220.5-1120.1,218.9z"/>
	<circle class="st7" cx="-1125.8" cy="218.9" r="3.3"/>
	<path class="st7" d="M-1120.1,210.6c0-1.7,1.7-3.3,3.3-3.3c1.7,0,3.3,1.7,3.3,3.3c0,1.7-1.7,3.3-3.3,3.3
		S-1120.1,212.2-1120.1,210.6z"/>
	<circle class="st7" cx="-1125.8" cy="210.6" r="3.3"/>
</g>
<path class="st12" d="M-1106.4,19.2h-21.6c-0.5,0-0.8-0.4-0.8-0.8s0.4-0.8,0.8-0.8h21.6c0.5,0,0.8,0.4,0.8,0.8
	S-1105.9,19.2-1106.4,19.2z"/>
<path class="st1" d="M-727.4,228.8V11.3h-24.4c-1.4,0-2.5,0.7-2.5,1.6v214.4c0,0.9,1.1,1.6,2.5,1.6L-727.4,228.8L-727.4,228.8z"/>
<path class="st2" d="M-410.2,11.1h-339.7c-2.3,0-4.1,1.8-4.1,4.1v13.3h347.8V15.2C-406.2,13.1-408,11.1-410.2,11.1z"/>
<path class="st7" d="M-559.5,22.8h-41.3c-1,0-1.5-0.5-1.5-1.5v-5.8c0-1,0.5-1.5,1.5-1.5h41.3c1,0,1.5,0.5,1.5,1.5v5.8
	C-558,22.3-558.5,22.8-559.5,22.8z"/>
<g>
	<path class="st7" d="M-413.2,22h-4.8c-0.8,0-1.2-0.4-1.2-1.2V16c0-0.8,0.4-1.2,1.2-1.2h4.8c0.8,0,1.2,0.4,1.2,1.2v4.8
		C-412.1,21.6-412.9,22-413.2,22z"/>
	<path class="st7" d="M-424.5,22h-4.8c-0.8,0-1.2-0.4-1.2-1.2V16c0-0.8,0.4-1.2,1.2-1.2h4.8c0.8,0,1.2,0.4,1.2,1.2v4.8
		C-423.2,21.6-423.7,22-424.5,22z"/>
	<path class="st7" d="M-435.7,22h-4.8c-0.8,0-1.2-0.4-1.2-1.2V16c0-0.8,0.4-1.2,1.2-1.2h4.8c0.8,0,1.2,0.4,1.2,1.2v4.8
		C-434.5,21.6-434.9,22-435.7,22z"/>
</g>
<path class="st9" d="M-408.2,228.9h-343.6c-1.4,0-2.5-1.1-2.5-2.5V13.6c0-1.4,1.1-2.5,2.5-2.5h343.5c1.4,0,2.5,1.1,2.5,2.5v212.8
	C-405.9,227.8-407,228.9-408.2,228.9z"/>
<path class="st7" d="M-749.7,141.3v-13.7c0-1,0.5-1.5,1.5-1.5h13.7c1,0,1.5,0.5,1.5,1.5v13.7c0,1-0.5,1.5-1.5,1.5h-13.7
	C-749.2,142.7-749.7,141.8-749.7,141.3z"/>
<path class="st7" d="M-749.7,118.4v-13.7c0-1,0.5-1.5,1.5-1.5h13.7c1,0,1.5,0.5,1.5,1.5v13.7c0,1-0.5,1.5-1.5,1.5h-13.7
	C-749.2,119.8-749.7,118.9-749.7,118.4z"/>
<path class="st7" d="M-749.7,95.5V81.8c0-1,0.5-1.5,1.5-1.5h13.7c1,0,1.5,0.5,1.5,1.5v13.7c0,1-0.5,1.5-1.5,1.5h-13.7
	C-749.2,96.9-749.7,96-749.7,95.5z"/>
<path class="st7" d="M-749.7,72.6V58.9c0-1,0.5-1.5,1.5-1.5h13.7c1,0,1.5,0.5,1.5,1.5v13.7c0,1-0.5,1.5-1.5,1.5h-13.7
	C-749.2,74-749.7,73-749.7,72.6z"/>
<path class="st7" d="M-749.7,49.7V36c0-1,0.5-1.5,1.5-1.5h13.7c1,0,1.5,0.5,1.5,1.5v13.7c0,1-0.5,1.5-1.5,1.5h-13.7
	C-749.2,51.1-749.7,50.1-749.7,49.7z"/>
<g>
	<path class="st7" d="M-740,218.9c0-1.7,1.7-3.3,3.3-3.3c1.7,0,3.3,1.7,3.3,3.3c0,1.7-1.7,3.3-3.3,3.3S-740,220.5-740,218.9z"/>
	<circle class="st7" cx="-745.8" cy="218.9" r="3.3"/>
	<path class="st7" d="M-740,210.6c0-1.7,1.7-3.3,3.3-3.3c1.7,0,3.3,1.7,3.3,3.3c0,1.7-1.7,3.3-3.3,3.3S-740,212.2-740,210.6z"/>
	<circle class="st7" cx="-745.8" cy="210.6" r="3.3"/>
</g>
<g>
	<path class="st10" d="M-748,21.2c-1.6,0-2.8-1.3-2.8-2.8s1.3-2.8,2.8-2.8h21.6c1.6,0,2.8,1.3,2.8,2.8s-1.3,2.8-2.8,2.8H-748z"/>
	<path class="st12" d="M-726.5,19.2H-748c-0.5,0-0.8-0.4-0.8-0.8s0.4-0.8,0.8-0.8h21.6c0.5,0,0.8,0.4,0.8,0.8
		C-725.7,18.8-726,19.2-726.5,19.2z"/>
</g>
<path class="st7" d="M-179.7,22.8H-221c-1,0-1.5-0.5-1.5-1.5v-5.8c0-1,0.5-1.5,1.5-1.5h41.3c1,0,1.5,0.5,1.5,1.5v5.8
	C-178.2,22.3-178.7,22.8-179.7,22.8z"/>
<g>
	<path class="st7" d="M-34.2,22H-39c-0.8,0-1.2-0.4-1.2-1.2V16c0-0.8,0.4-1.2,1.2-1.2h4.8c0.8,0,1.2,0.4,1.2,1.2v4.8
		C-33,21.6-33.8,22-34.2,22z"/>
	<path class="st7" d="M-45.4,22h-4.8c-0.8,0-1.2-0.4-1.2-1.2V16c0-0.8,0.4-1.2,1.2-1.2h4.8c0.8,0,1.2,0.4,1.2,1.2v4.8
		C-44.2,21.6-44.6,22-45.4,22z"/>
	<path class="st7" d="M-56.6,22h-4.8c-0.8,0-1.2-0.4-1.2-1.2V16c0-0.8,0.4-1.2,1.2-1.2h4.8c0.8,0,1.2,0.4,1.2,1.2v4.8
		C-55.4,21.6-55.8,22-56.6,22z"/>
</g>
<path class="st7" d="M-370.6,141.3v-13.7c0-1,0.5-1.5,1.5-1.5h13.7c1,0,1.5,0.5,1.5,1.5v13.7c0,1-0.5,1.5-1.5,1.5h-13.7
	C-370.2,142.7-370.6,141.8-370.6,141.3z"/>
<path class="st7" d="M-370.6,118.4v-13.7c0-1,0.5-1.5,1.5-1.5h13.7c1,0,1.5,0.5,1.5,1.5v13.7c0,1-0.5,1.5-1.5,1.5h-13.7
	C-370.2,119.8-370.6,118.9-370.6,118.4z"/>
<path class="st7" d="M-370.6,95.5V81.8c0-1,0.5-1.5,1.5-1.5h13.7c1,0,1.5,0.5,1.5,1.5v13.7c0,1-0.5,1.5-1.5,1.5h-13.7
	C-370.2,96.9-370.6,96-370.6,95.5z"/>
<path class="st7" d="M-370.6,72.6V58.9c0-1,0.5-1.5,1.5-1.5h13.7c1,0,1.5,0.5,1.5,1.5v13.7c0,1-0.5,1.5-1.5,1.5h-13.7
	C-370.2,74-370.6,73-370.6,72.6z"/>
<path class="st7" d="M-370.6,49.7V36c0-1,0.5-1.5,1.5-1.5h13.7c1,0,1.5,0.5,1.5,1.5v13.7c0,1-0.5,1.5-1.5,1.5h-13.7
	C-370.2,51.1-370.6,50.1-370.6,49.7z"/>
<g>
	<path class="st7" d="M-361,218.9c0-1.7,1.7-3.3,3.3-3.3c1.7,0,3.3,1.7,3.3,3.3c0,1.7-1.7,3.3-3.3,3.3S-361,220.5-361,218.9z"/>
	<circle class="st7" cx="-366.8" cy="218.9" r="3.3"/>
	<path class="st7" d="M-361,210.6c0-1.7,1.7-3.3,3.3-3.3c1.7,0,3.3,1.7,3.3,3.3c0,1.7-1.7,3.3-3.3,3.3S-361,212.2-361,210.6z"/>
	<circle class="st7" cx="-366.8" cy="210.6" r="3.3"/>
</g>
<g>
	<path class="st10" d="M-368.9,21.2c-1.6,0-2.8-1.3-2.8-2.8s1.3-2.8,2.8-2.8h21.6c1.6,0,2.8,1.3,2.8,2.8s-1.3,2.8-2.8,2.8H-368.9z"
		/>
	<path class="st12" d="M-347.4,19.2H-369c-0.5,0-0.8-0.4-0.8-0.8s0.4-0.8,0.8-0.8h21.6c0.5,0,0.8,0.4,0.8,0.8
		C-346.6,18.8-346.9,19.2-347.4,19.2z"/>
</g>
<g>
	<path class="st13" d="M-226.2,90.6h-98.7c-3.2,0-5.8,2.7-5.8,5.8v67.9c0,3.2,2.7,5.8,5.8,5.8h98.6c3.2,0,5.8-2.5,6-5.7v-68
		C-220.3,93.3-223,90.6-226.2,90.6z"/>
	<path class="st5" d="M-226.3,169.6h-98.6c-2.9,0-5.3-2.4-5.3-5.3V96.4c0-2.9,2.4-5.3,5.3-5.3h98.7c2.9,0,5.3,2.4,5.3,5.3v68
		C-221.1,167.4-223.5,169.6-226.3,169.6z"/>
	<path class="st14" d="M-221,100.7v-4.3c0-2.9-2.4-5.3-5.3-5.3h-98.5c-2.9,0-5.3,2.4-5.3,5.3v4.3H-221z"/>
</g>
<g>
	<path class="st15" d="M-76.8,79.2h-127.3c-4.1,0-7.5,3.5-7.5,7.5v87.5c0,4.1,3.5,7.5,7.5,7.5h127c4.1,0,7.5-3.2,7.7-7.4V86.6
		C-69.3,82.6-72.8,79.2-76.8,79.2z"/>
	<path class="st5" d="M-77,181h-127.1c-3.7,0-6.8-3.1-6.8-6.8V86.7c0-3.7,3.1-6.8,6.8-6.8h127.2c3.7,0,6.8,3.1,6.8,6.8v87.7
		C-70.3,178.1-73.3,181-77,181z"/>
	<path class="st14" d="M-70.2,92.1v-5.5c0-3.7-3.1-6.8-6.8-6.8h-126.9c-3.7,0-6.8,3.1-6.8,6.8v5.5H-70.2z"/>
</g>
<g>
	<path class="st10" d="M-160.1,45.4h-82c-3.5,0-6.2-2.7-6.2-6.2l0,0c0-3.5,2.7-6.2,6.2-6.2h82c3.5,0,6.2,2.7,6.2,6.2l0,0
		C-153.9,42.7-156.6,45.4-160.1,45.4z"/>
	<g>
		<circle class="st16" cx="-241.5" cy="38.9" r="2.4"/>
		<line class="st16" x1="-239.6" y1="40.5" x2="-237.2" y2="43"/>
	</g>
</g>
<g>
	<polygon class="st17" points="-2090.3,178 -2113.4,170.5 -2108.1,194.8 -2102.1,188.6 -2095.8,195.2 -2090.8,190.2 -2096.2,183.9 	
		"/>
	<polygon class="st18" points="-2092.1,178.4 -2112.2,171.9 -2107.6,192.9 -2102.1,187.3 -2095.8,193.9 -2092.1,190.2 
		-2097.5,183.8 	"/>
</g>
<g>
	<polygon class="st17" points="-2162.6,193.9 -2185.7,186.4 -2180.4,210.7 -2174.4,204.5 -2168.1,211.1 -2163.1,206.1 
		-2168.5,199.8 	"/>
	<polygon class="st18" points="-2164.4,194.3 -2184.5,187.8 -2179.9,208.8 -2174.4,203.2 -2168.1,209.8 -2164.4,206.1 
		-2169.8,199.7 	"/>
</g>
<g>
	<polygon class="st17" points="-2233.6,217.7 -2256.7,210.2 -2251.4,234.5 -2245.4,228.3 -2239.1,234.9 -2234.1,229.9 
		-2239.5,223.6 	"/>
	<polygon class="st18" points="-2235.4,218.1 -2255.5,211.6 -2250.9,232.6 -2245.4,227 -2239.1,233.6 -2235.4,229.9 -2240.8,223.5 	
		"/>
</g>
<g>
	<path class="st0" d="M-1548.2,226.9h-343.5c-1.4,0-2.5-1.1-2.5-2.5V11.6c0-1.4,1.1-2.5,2.5-2.5h343.5c1.4,0,2.5,1.1,2.5,2.5v212.8
		C-1545.9,225.8-1547,226.9-1548.2,226.9z"/>
	<path class="st1" d="M-1867.3,226.8V9.3h-24.4c-1.4,0-2.5,0.7-2.5,1.6v214.4c0,0.9,1.1,1.6,2.5,1.6L-1867.3,226.8L-1867.3,226.8z"
		/>
	<g>
		<path class="st2" d="M-1550,9.1h-339.7c-2.3,0-4.1,1.8-4.1,4.1v13.3h347.8V13.2C-1546,11.1-1547.9,9.1-1550,9.1z"/>
		<path class="st7" d="M-1699.4,20.8h-41.3c-1,0-1.5-0.5-1.5-1.5v-5.8c0-1,0.5-1.5,1.5-1.5h41.3c1,0,1.5,0.5,1.5,1.5v5.8
			C-1697.9,20.3-1698.4,20.8-1699.4,20.8z"/>
		<g>
			<g>
				<path class="st7" d="M-1553.2,20h-4.8c-0.8,0-1.2-0.4-1.2-1.2V14c0-0.8,0.4-1.2,1.2-1.2h4.8c0.8,0,1.2,0.4,1.2,1.2v4.8
					C-1552,19.6-1552.8,20-1553.2,20z"/>
				<path class="st7" d="M-1564.4,20h-4.8c-0.8,0-1.2-0.4-1.2-1.2V14c0-0.8,0.4-1.2,1.2-1.2h4.8c0.8,0,1.2,0.4,1.2,1.2v4.8
					C-1563.2,19.6-1563.5,20-1564.4,20z"/>
				<path class="st7" d="M-1575.5,20h-4.8c-0.8,0-1.2-0.4-1.2-1.2V14c0-0.8,0.4-1.2,1.2-1.2h4.8c0.8,0,1.2,0.4,1.2,1.2v4.8
					C-1574.4,19.6-1574.8,20-1575.5,20z"/>
			</g>
			<line class="st8" x1="-1888" y1="16.4" x2="-1866.3" y2="16.4"/>
		</g>
	</g>
	<path class="st7" d="M-1889.8,139.4v-13.7c0-1,0.5-1.5,1.5-1.5h13.7c1,0,1.5,0.5,1.5,1.5v13.7c0,1-0.5,1.5-1.5,1.5h-13.7
		C-1889.2,140.8-1889.8,139.9-1889.8,139.4z"/>
	<path class="st7" d="M-1889.8,116.5v-13.7c0-1,0.5-1.5,1.5-1.5h13.7c1,0,1.5,0.5,1.5,1.5v13.7c0,1-0.5,1.5-1.5,1.5h-13.7
		C-1889.2,117.9-1889.8,117-1889.8,116.5z"/>
	<path class="st7" d="M-1889.8,93.6V79.9c0-1,0.5-1.5,1.5-1.5h13.7c1,0,1.5,0.5,1.5,1.5v13.7c0,1-0.5,1.5-1.5,1.5h-13.7
		C-1889.2,95-1889.8,94.1-1889.8,93.6z"/>
	<path class="st7" d="M-1889.8,70.7V57c0-1,0.5-1.5,1.5-1.5h13.7c1,0,1.5,0.5,1.5,1.5v13.7c0,1-0.5,1.5-1.5,1.5h-13.7
		C-1889.2,72.1-1889.8,71.1-1889.8,70.7z"/>
	<path class="st7" d="M-1889.8,47.8V34.1c0-1,0.5-1.5,1.5-1.5h13.7c1,0,1.5,0.5,1.5,1.5v13.7c0,1-0.5,1.5-1.5,1.5h-13.7
		C-1889.2,49.2-1889.8,48.2-1889.8,47.8z"/>
	<path class="st10" d="M-1890.8,220.4V205c0-1.1,0.6-1.7,1.7-1.7h15.4c1.1,0,1.7,0.6,1.7,1.7v15.4c0,1.1-0.6,1.7-1.7,1.7h-15.4
		C-1890.2,222.1-1890.8,221-1890.8,220.4z"/>
	<g>
		<path class="st7" d="M-1880.1,217c0-1.7,1.7-3.3,3.3-3.3c1.7,0,3.3,1.7,3.3,3.3c0,1.7-1.7,3.3-3.3,3.3S-1880.1,218.6-1880.1,217z"
			/>
		<circle class="st7" cx="-1885.8" cy="217" r="3.3"/>
		<path class="st7" d="M-1880.1,208.7c0-1.7,1.7-3.3,3.3-3.3c1.7,0,3.3,1.7,3.3,3.3c0,1.7-1.7,3.3-3.3,3.3
			S-1880.1,210.3-1880.1,208.7z"/>
		<circle class="st7" cx="-1885.8" cy="208.7" r="3.3"/>
	</g>
	<g>
		<circle class="st7" cx="-1723.2" cy="215" r="3.1"/>
		<circle class="st10" cx="-1714.5" cy="215" r="2.1"/>
	</g>
	<path class="st11" d="M-1797.8,119.4h-12.7c-2,0-3.7-1.7-3.7-3.7v-13.9c0-2,1.7-3.7,3.7-3.7h12.7c2,0,3.7,1.7,3.7,3.7v13.9
		C-1793.8,117.7-1795.6,119.4-1797.8,119.4z"/>
	<path class="st11" d="M-1769.4,119.4h-12.7c-2,0-3.7-1.7-3.7-3.7v-13.9c0-2,1.7-3.7,3.7-3.7h12.7c2,0,3.7,1.7,3.7,3.7v13.9
		C-1765.8,117.7-1767.4,119.4-1769.4,119.4z"/>
	<path class="st11" d="M-1741.2,119.4h-12.7c-2,0-3.7-1.7-3.7-3.7v-13.9c0-2,1.7-3.7,3.7-3.7h12.7c2,0,3.7,1.7,3.7,3.7v13.9
		C-1737.5,117.7-1739.2,119.4-1741.2,119.4z"/>
	<path class="st11" d="M-1713,119.4h-12.7c-2,0-3.7-1.7-3.7-3.7v-13.9c0-2,1.7-3.7,3.7-3.7h12.7c2,0,3.7,1.7,3.7,3.7v13.9
		C-1709.4,117.7-1711,119.4-1713,119.4z"/>
	<path class="st11" d="M-1684.9,119.4h-12.7c-2,0-3.7-1.7-3.7-3.7v-13.9c0-2,1.7-3.7,3.7-3.7h12.7c2,0,3.7,1.7,3.7,3.7v13.9
		C-1681.2,117.7-1682.9,119.4-1684.9,119.4z"/>
	<path class="st11" d="M-1656.8,119.4h-12.7c-2,0-3.7-1.7-3.7-3.7v-13.9c0-2,1.7-3.7,3.7-3.7h12.7c2,0,3.7,1.7,3.7,3.7v13.9
		C-1653,117.7-1654.5,119.4-1656.8,119.4z"/>
	<path class="st11" d="M-1628.5,119.4h-12.7c-2,0-3.7-1.7-3.7-3.7v-13.9c0-2,1.7-3.7,3.7-3.7h12.7c2,0,3.7,1.7,3.7,3.7v13.9
		C-1624.8,117.7-1626.4,119.4-1628.5,119.4z"/>
	<path class="st11" d="M-1797.8,148.1h-12.7c-2,0-3.7-1.7-3.7-3.7v-13.9c0-2,1.7-3.7,3.7-3.7h12.7c2,0,3.7,1.7,3.7,3.7v13.9
		C-1793.8,146.4-1795.6,148.1-1797.8,148.1z"/>
	<path class="st11" d="M-1769.4,148.1h-12.7c-2,0-3.7-1.7-3.7-3.7v-13.9c0-2,1.7-3.7,3.7-3.7h12.7c2,0,3.7,1.7,3.7,3.7v13.9
		C-1765.8,146.4-1767.4,148.1-1769.4,148.1z"/>
	<path class="st11" d="M-1741.2,148.1h-12.7c-2,0-3.7-1.7-3.7-3.7v-13.9c0-2,1.7-3.7,3.7-3.7h12.7c2,0,3.7,1.7,3.7,3.7v13.9
		C-1737.5,146.4-1739.2,148.1-1741.2,148.1z"/>
	<path class="st11" d="M-1713,148.1h-12.7c-2,0-3.7-1.7-3.7-3.7v-13.9c0-2,1.7-3.7,3.7-3.7h12.7c2,0,3.7,1.7,3.7,3.7v13.9
		C-1709.4,146.4-1711,148.1-1713,148.1z"/>
	<path class="st11" d="M-1684.9,148.1h-12.7c-2,0-3.7-1.7-3.7-3.7v-13.9c0-2,1.7-3.7,3.7-3.7h12.7c2,0,3.7,1.7,3.7,3.7v13.9
		C-1681.2,146.4-1682.9,148.1-1684.9,148.1z"/>
	<path class="st11" d="M-1656.8,148.1h-12.7c-2,0-3.7-1.7-3.7-3.7v-13.9c0-2,1.7-3.7,3.7-3.7h12.7c2,0,3.7,1.7,3.7,3.7v13.9
		C-1653,146.4-1654.5,148.1-1656.8,148.1z"/>
	<path class="st11" d="M-1628.5,148.1h-12.7c-2,0-3.7-1.7-3.7-3.7v-13.9c0-2,1.7-3.7,3.7-3.7h12.7c2,0,3.7,1.7,3.7,3.7v13.9
		C-1624.8,146.4-1626.4,148.1-1628.5,148.1z"/>
	<path class="st11" d="M-1797.8,176.7h-12.7c-2,0-3.7-1.7-3.7-3.7v-13.9c0-2,1.7-3.7,3.7-3.7h12.7c2,0,3.7,1.7,3.7,3.7V173
		C-1793.8,175-1795.6,176.7-1797.8,176.7z"/>
	<path class="st11" d="M-1769.4,176.7h-12.7c-2,0-3.7-1.7-3.7-3.7v-13.9c0-2,1.7-3.7,3.7-3.7h12.7c2,0,3.7,1.7,3.7,3.7V173
		C-1765.8,175-1767.4,176.7-1769.4,176.7z"/>
	<path class="st11" d="M-1741.2,176.7h-12.7c-2,0-3.7-1.7-3.7-3.7v-13.9c0-2,1.7-3.7,3.7-3.7h12.7c2,0,3.7,1.7,3.7,3.7V173
		C-1737.5,175-1739.2,176.7-1741.2,176.7z"/>
	<path class="st11" d="M-1713,176.7h-12.7c-2,0-3.7-1.7-3.7-3.7v-13.9c0-2,1.7-3.7,3.7-3.7h12.7c2,0,3.7,1.7,3.7,3.7V173
		C-1709.4,175-1711,176.7-1713,176.7z"/>
	<path class="st11" d="M-1684.9,176.7h-12.7c-2,0-3.7-1.7-3.7-3.7v-13.9c0-2,1.7-3.7,3.7-3.7h12.7c2,0,3.7,1.7,3.7,3.7V173
		C-1681.2,175-1682.9,176.7-1684.9,176.7z"/>
	<path class="st11" d="M-1656.8,176.7h-12.7c-2,0-3.7-1.7-3.7-3.7v-13.9c0-2,1.7-3.7,3.7-3.7h12.7c2,0,3.7,1.7,3.7,3.7V173
		C-1653,175-1654.5,176.7-1656.8,176.7z"/>
	<path class="st11" d="M-1628.5,176.7h-12.7c-2,0-3.7-1.7-3.7-3.7v-13.9c0-2,1.7-3.7,3.7-3.7h12.7c2,0,3.7,1.7,3.7,3.7V173
		C-1624.8,175-1626.4,176.7-1628.5,176.7z"/>
	<g>
		<path class="st10" d="M-1678.5,43.6h-82c-3.5,0-6.2-2.7-6.2-6.2l0,0c0-3.5,2.7-6.2,6.2-6.2h82c3.5,0,6.2,2.7,6.2,6.2l0,0
			C-1672.2,40.9-1675,43.6-1678.5,43.6z"/>
		<g>
			<circle class="st16" cx="-1759.9" cy="37.1" r="2.4"/>
			<line class="st16" x1="-1758" y1="38.7" x2="-1755.5" y2="41.2"/>
		</g>
	</g>
	<path class="st11" d="M-1797.8,205.5h-12.7c-2,0-3.7-1.7-3.7-3.7v-13.9c0-2,1.7-3.7,3.7-3.7h12.7c2,0,3.7,1.7,3.7,3.7v13.9
		C-1793.8,203.8-1795.6,205.5-1797.8,205.5z"/>
	<path class="st11" d="M-1769.4,205.5h-12.7c-2,0-3.7-1.7-3.7-3.7v-13.9c0-2,1.7-3.7,3.7-3.7h12.7c2,0,3.7,1.7,3.7,3.7v13.9
		C-1765.8,203.8-1767.4,205.5-1769.4,205.5z"/>
	<path class="st11" d="M-1741.2,205.5h-12.7c-2,0-3.7-1.7-3.7-3.7v-13.9c0-2,1.7-3.7,3.7-3.7h12.7c2,0,3.7,1.7,3.7,3.7v13.9
		C-1737.5,203.8-1739.2,205.5-1741.2,205.5z"/>
	<path class="st11" d="M-1713,205.5h-12.7c-2,0-3.7-1.7-3.7-3.7v-13.9c0-2,1.7-3.7,3.7-3.7h12.7c2,0,3.7,1.7,3.7,3.7v13.9
		C-1709.4,203.8-1711,205.5-1713,205.5z"/>
	<path class="st11" d="M-1684.9,205.5h-12.7c-2,0-3.7-1.7-3.7-3.7v-13.9c0-2,1.7-3.7,3.7-3.7h12.7c2,0,3.7,1.7,3.7,3.7v13.9
		C-1681.2,203.8-1682.9,205.5-1684.9,205.5z"/>
	<path class="st11" d="M-1656.8,205.5h-12.7c-2,0-3.7-1.7-3.7-3.7v-13.9c0-2,1.7-3.7,3.7-3.7h12.7c2,0,3.7,1.7,3.7,3.7v13.9
		C-1653,203.8-1654.5,205.5-1656.8,205.5z"/>
	<path class="st11" d="M-1628.5,205.5h-12.7c-2,0-3.7-1.7-3.7-3.7v-13.9c0-2,1.7-3.7,3.7-3.7h12.7c2,0,3.7,1.7,3.7,3.7v13.9
		C-1624.8,203.8-1626.4,205.5-1628.5,205.5z"/>
	<g>
		<rect x="-1784" y="51.9" class="st3" width="66.3" height="37.3"/>
		<rect x="-1714.8" y="53.7" class="st3" width="59.9" height="33.6"/>
	</g>
	<g>
		<polygon class="st17" points="-1858,220.1 -1881.1,212.6 -1875.8,236.9 -1869.8,230.7 -1863.5,237.3 -1858.5,232.3 -1863.9,226 		
			"/>
		<polygon class="st18" points="-1859.8,220.5 -1879.9,214 -1875.3,235 -1869.8,229.4 -1863.5,236 -1859.8,232.3 -1865.2,225.9 		
			"/>
	</g>
</g>
<g>
	<polygon class="st17" points="-1479.6,219.2 -1502.7,211.7 -1497.4,236 -1491.4,229.8 -1485.1,236.4 -1480.1,231.4 -1485.5,225.1 	
		"/>
	<polygon class="st18" points="-1481.4,219.6 -1501.5,213.1 -1496.9,234.1 -1491.4,228.5 -1485.1,235.1 -1481.4,231.4 -1486.8,225 	
		"/>
</g>
<g>
	<polygon class="st17" points="-1085.5,29.7 -1108.6,22.2 -1103.3,46.5 -1097.3,40.3 -1091,46.9 -1086,41.9 -1091.4,35.6 	"/>
	<polygon class="st18" points="-1087.3,30.1 -1107.4,23.6 -1102.8,44.6 -1097.3,39 -1091,45.6 -1087.3,41.9 -1092.7,35.5 	"/>
</g>
<g>
	<polygon class="st17" points="-1085.5,122.8 -1108.6,115.3 -1103.3,139.6 -1097.3,133.4 -1091,140 -1086,135 -1091.4,128.7 	"/>
	<polygon class="st18" points="-1087.3,123.2 -1107.4,116.7 -1102.8,137.7 -1097.3,132.1 -1091,138.7 -1087.3,135 -1092.7,128.6 	
		"/>
</g>
<g>
	<polygon class="st17" points="-710.3,25.5 -733.4,18 -728.1,42.3 -722.1,36.1 -715.8,42.7 -710.8,37.7 -716.2,31.4 	"/>
	<polygon class="st18" points="-712.1,25.9 -732.2,19.4 -727.6,40.4 -722.1,34.8 -715.8,41.4 -712.1,37.7 -717.5,31.3 	"/>
</g>
<g>
	<polygon class="st17" points="-328.5,25.2 -351.6,17.7 -346.3,42 -340.3,35.8 -334,42.4 -329,37.4 -334.4,31.1 	"/>
	<polygon class="st18" points="-330.3,25.6 -350.4,19.1 -345.8,40.1 -340.3,34.5 -334,41.1 -330.3,37.4 -335.7,31 	"/>
</g>
<g>
	<polygon class="st17" points="55.5,31.8 32.4,24.3 37.7,48.6 43.7,42.4 50,49 55,44 49.6,37.7 	"/>
	<polygon class="st18" points="53.7,32.2 33.6,25.7 38.2,46.7 43.7,41.1 50,47.7 53.7,44 48.3,37.6 	"/>
</g>
<g>
	<polygon class="st17" points="110.6,99.1 87.5,91.6 92.8,115.9 98.8,109.7 105.1,116.3 110.1,111.3 104.7,105 	"/>
	<polygon class="st18" points="108.8,99.5 88.7,93 93.3,114 98.8,108.4 105.1,115 108.8,111.3 103.4,104.9 	"/>
</g>
</svg>
