<?xml version="1.0" encoding="UTF-8" standalone="no"?>
<!-- Created with Inkscape (http://www.inkscape.org/) -->

<svg
   width="218.06958mm"
   height="210.1321mm"
   viewBox="0 0 218.06958 210.1321"
   version="1.1"
   id="svg1121"
   sodipodi:docname="pardus.svg"
   inkscape:version="1.2.2 (b0a8486541, 2022-12-01)"
   xmlns:inkscape="http://www.inkscape.org/namespaces/inkscape"
   xmlns:sodipodi="http://sodipodi.sourceforge.net/DTD/sodipodi-0.dtd"
   xmlns="http://www.w3.org/2000/svg"
   xmlns:svg="http://www.w3.org/2000/svg">
  <sodipodi:namedview
     id="namedview24"
     pagecolor="#ffffff"
     bordercolor="#000000"
     borderopacity="0.25"
     inkscape:showpageshadow="2"
     inkscape:pageopacity="0.0"
     inkscape:pagecheckerboard="0"
     inkscape:deskcolor="#d1d1d1"
     inkscape:document-units="mm"
     showgrid="false"
     inkscape:zoom="1.0752958"
     inkscape:cx="297.59253"
     inkscape:cy="398.495"
     inkscape:window-width="1499"
     inkscape:window-height="1236"
     inkscape:window-x="50"
     inkscape:window-y="50"
     inkscape:window-maximized="0"
     inkscape:current-layer="svg1121" />
  <defs
     id="defs1118" />
  <g
     id="layer1"
     transform="matrix(1.1333218,0,0,1.2272605,-9.805023,-63.481405)"
     style="fill:#ffffff">
    <g
       id="g723"
       transform="matrix(0.26458333,0,0,0.26458333,-403.39857,-209.41081)"
       style="fill:#ffffff">
      <polygon
         class="cls-3"
         points="1753.5,1514.3 1905.9,1607.4 1906,1607.3 1906.1,1607.4 2058.5,1514.3 2058.5,1430.3 1906.1,1375.9 1906,1375.9 1905.9,1375.9 1753.5,1430.3 "
         id="polygon133"
         style="fill:#ffffff" />
      <polygon
         class="cls-3"
         points="1935.4,1245.2 1939.4,1331 2137.8,1409.5 2207.8,1343.1 2045,1212.3 2235.5,1316.8 2254.8,1298.5 2143.8,1073.9 1906,989 1668.2,1073.9 1557.2,1298.5 1576.6,1316.8 1767,1212.3 1604.3,1343.1 1674.3,1409.5 1872.6,1331 1876.6,1245.2 1776.9,1139.7 2035.2,1139.7 "
         id="polygon135"
         style="fill:#ffffff" />
      <polygon
         class="cls-4"
         points="1905.9,1607.3 1906,1607.3 1906,1375.9 1905.9,1375.9 1753.5,1430.3 1753.5,1514.3 "
         id="polygon137"
         style="fill:#ffffff" />
      <polygon
         class="cls-4"
         points="1604.3,1343.1 1674.3,1409.5 1872.6,1331 1876.6,1245.2 1776.9,1139.7 1906,1139.7 1906,989 1668.2,1073.9 1557.2,1298.5 1576.6,1316.8 1767,1212.3 "
         id="polygon139"
         style="fill:#ffffff" />
      <polygon
         class="cls-8"
         points="2058.5,1447 2058.5,1514.3 1906.1,1607.4 1906,1607.3 1905.9,1607.4 1905.9,1607.3 1781.5,1531.4 1781.5,1540.9 1933.8,1633.9 1933.9,1634 1934,1633.9 1934.1,1634 2086.5,1540.9 2086.5,1456.9 "
         id="polygon151"
         style="fill:#ffffff" />
      <polygon
         class="cls-8"
         points="1767,1212.3 1593.9,1307.3 1585.2,1325.1 1604.3,1343.1 "
         id="polygon153"
         style="fill:#ffffff" />
      <polygon
         class="cls-8"
         points="2238.1,1367.5 2207.8,1343.1 2137.8,1409.5 1966.6,1341.8 1967.4,1357.7 2165.7,1436.1 "
         id="polygon155"
         style="fill:#ffffff" />
      <polygon
         class="cls-8"
         points="2171.8,1100.5 2153.8,1094.1 2254.8,1298.5 2235.5,1316.8 2045,1212.3 2089.2,1247.8 2263.4,1343.4 2282.8,1325.1 "
         id="polygon157"
         style="fill:#ffffff" />
      <polygon
         class="cls-8"
         points="1904.6,1274.8 1876.6,1245.2 1872.6,1331 1674.3,1409.5 1702.2,1436.1 1900.6,1357.7 "
         id="polygon165"
         style="fill:#ffffff" />
      <polygon
         class="cls-8"
         points="2010,1166.3 2035.2,1139.7 1776.9,1139.7 1802.1,1166.4 1802.1,1166.3 "
         id="polygon167"
         style="fill:#ffffff" />
    </g>
  </g>
</svg>
