<svg xmlns="http://www.w3.org/2000/svg" viewBox="0 0 286.95 346.02"><defs><style>.cls-1,.cls-5{fill:#fff5d8;}.cls-1,.cls-3{stroke:#1d1d1b;stroke-width:10.02px;}.cls-2{fill:#1d1d1b;}.cls-3{fill:#fc0;}.cls-4{fill:#fff7e2;}</style></defs><g id="Layer_2" data-name="Layer 2"><g id="Layer_1-2" data-name="Layer 1"><path class="cls-1" d="M273.89,42.8C272.46,22,251.12,5,226.47,5h-166c-24.66,0-46,17-47.42,37.79l-8,115.84c-1.43,20.78,16.27,43.8,39.33,51.14L101.54,228c23.07,7.35,60.81,7.35,83.87,0l57.12-18.2c23.06-7.34,40.77-30.36,39.33-51.14Z"/><path class="cls-2" d="M67,67.12A12.22,12.22,0,0,1,54.77,79.39H52.24a2.2,2.2,0,0,0-2.52,2.46v9.83a4.87,4.87,0,0,1-4.91,4.91H42.35a4.7,4.7,0,0,1-3.48-1.43,4.76,4.76,0,0,1-1.42-3.5V34.88a11.77,11.77,0,0,1,3.61-8.69,12,12,0,0,1,8.76-3.59h5A12.24,12.24,0,0,1,67,34.88ZM54.7,64.54V37.41A2.19,2.19,0,0,0,52.21,35a2.19,2.19,0,0,0-2.49,2.46V64.54A2.19,2.19,0,0,0,52.21,67,2.19,2.19,0,0,0,54.7,64.54Z"/><path class="cls-2" d="M103.53,84.32A12.22,12.22,0,0,1,91.26,96.59H86.21A12.22,12.22,0,0,1,73.94,84.32V79.39A12.22,12.22,0,0,1,86.21,67.12H88.7a2.2,2.2,0,0,0,2.5-2.48V37.36a2.47,2.47,0,1,0-4.93,0V57.13a4.88,4.88,0,0,1-4.94,4.94H78.87a4.88,4.88,0,0,1-4.93-4.93V34.94A12.27,12.27,0,0,1,86.21,22.6h5.05A11.81,11.81,0,0,1,100,26.21,11.93,11.93,0,0,1,103.53,35ZM91.2,81.8a2.47,2.47,0,1,0-2.47,2.46A2.18,2.18,0,0,0,91.2,81.8Z"/><path class="cls-2" d="M140,57.14a4.77,4.77,0,0,1-1.43,3.5,4.68,4.68,0,0,1-3.48,1.43h-2.46a4.74,4.74,0,0,1-3.48-1.43,4.8,4.8,0,0,1-1.42-3.51V37.35a2.53,2.53,0,0,0-5.06,0V91.66a4.76,4.76,0,0,1-1.42,3.5,4.7,4.7,0,0,1-3.48,1.43h-2.46a4.71,4.71,0,0,1-3.49-1.43,4.8,4.8,0,0,1-1.42-3.5V34.94A12.31,12.31,0,0,1,122.76,22.6h4.94A12.31,12.31,0,0,1,140,34.94Z"/><path class="cls-2" d="M176.52,84.32a12.22,12.22,0,0,1-12.27,12.27H151.88a4.9,4.9,0,0,1-5-4.93V27.54a4.9,4.9,0,0,1,5-4.94h12.37a12.24,12.24,0,0,1,12.27,12.28ZM164.19,81.8V37.41a2.5,2.5,0,0,0-5,0V81.8a2.5,2.5,0,0,0,5,0Z"/><path class="cls-2" d="M213,84.32a12.22,12.22,0,0,1-12.27,12.27h-5.05a12.22,12.22,0,0,1-12.27-12.27V27.54a4.9,4.9,0,0,1,4.93-4.94h2.47a4.88,4.88,0,0,1,4.93,4.94V81.8a2.47,2.47,0,0,0,4.93,0V27.54a4.88,4.88,0,0,1,4.93-4.94h2.47A4.9,4.9,0,0,1,213,27.54Z"/><path class="cls-2" d="M249.51,84.32a12.24,12.24,0,0,1-12.27,12.27H224.86a4.9,4.9,0,0,1-5-4.93V89.2a4.88,4.88,0,0,1,4.93-4.94h9.87a2.44,2.44,0,1,0,0-4.87h-2.5a12.24,12.24,0,0,1-12.27-12.27V34.88A12.26,12.26,0,0,1,232.18,22.6h5.06a12.26,12.26,0,0,1,12.27,12.28V57.13a4.88,4.88,0,0,1-4.94,4.94h-2.46a4.88,4.88,0,0,1-4.94-4.93V37.41a2.47,2.47,0,0,0-4.93,0V64.54a2.19,2.19,0,0,0,2.5,2.46h2.5a11.76,11.76,0,0,1,8.68,3.62,12,12,0,0,1,3.59,8.76Z"/><path class="cls-3" d="M253.63,150.32c-1.21-20.79-19.24-37.79-40-37.79H73.38c-20.82,0-38.85,17-40,37.79L26.59,266.15C25.38,286.94,40.33,310,59.82,317.3l48.23,18.2c19.49,7.35,51.37,7.35,70.85,0l48.24-18.2c19.48-7.34,34.43-30.36,33.22-51.15Z"/><polygon class="cls-4" points="94.25 152.59 63.91 140.46 48.4 160.68 71.33 196.42 94.25 152.59"/><polygon class="cls-4" points="192.7 152.59 223.04 140.46 238.55 160.68 215.63 196.42 192.7 152.59"/><path class="cls-5" d="M213.49,207l-23.58-44.89a10.48,10.48,0,0,0-5.4-4.22l-.44-.11-35.49-8.44a25.23,25.23,0,0,0-9.37,0l-36.33,8.49-.45.11a10.29,10.29,0,0,0-5.38,4.19L73.46,207l-3.26,6.2a16.19,16.19,0,0,0-1.3,8.13l6.55,39.39a5.17,5.17,0,0,0,3.12,3.43l17.85,4.5c-.44-1.75,3.61-3.58,3.6-5.31l9.09-19.81a5.41,5.41,0,0,1-.1,1l-3.4,17.63a11.32,11.32,0,0,0,1.5,7l1.88,2.66,8.87,12.51,13,18.38a8.29,8.29,0,0,0,5.46,2.84h14.28a8.27,8.27,0,0,0,5.45-2.84l12.9-18.2,8.9-12.56,2-2.79a11.32,11.32,0,0,0,1.5-7l-3.4-17.63a4.67,4.67,0,0,1-.09-1l9.08,19.8c0,1.76,4,3.61,3.59,5.4l17.85-4.58a5.13,5.13,0,0,0,3.13-3.44l6.55-39.39a16.19,16.19,0,0,0-1.29-8.13Z"/><path class="cls-2" d="M241.84,157.35a46.34,46.34,0,0,0-6.54-11.16,42.13,42.13,0,0,0-9.6-8.8c-2.62-1.5-14.63,1.78-20.7,4.56l-4.43,2-11.23,5.15a3,3,0,0,1-1.37-.23c-.55-.24-7.31-1.91-13.81-3.43l-11.65-2.72c-6.51-1.52-14-3-16.67-3.22s-14,1.65-20.54,3.15l-12.47,2.86c-6.51,1.49-12.28,2.85-12.83,3a21,21,0,0,1-2.19.66c-.1-.06-5.35-2.46-11.42-5.24L82,142c-6.08-2.78-13.57-5.23-16.66-5.46s-11,6.36-13.64,9.7a46.2,46.2,0,0,0-6.54,11.16c-.95,2.8,4.17,13.82,7.91,19.35L60.66,188c3.74,5.54,5.79,11.94,4.57,14.22a61.54,61.54,0,0,0-3.72,9c-.83,2.69.13,14.48,1.24,21.07l2.39,14c1.11,6.59,3.21,14.18,4.65,16.87s12.9,7.45,19.39,9.06l2.9.72c6.48,1.61,15,7.35,18.88,12.77l5.24,7.25c3.9,5.41,9,11.36,11.32,13.21s12.1,3.37,16,3.37a55.24,55.24,0,0,0,12.21-1.45c2.86-.79,11.16-9.72,15.06-15.13l5.15-7.14c3.91-5.41,12.4-11.17,18.88-12.8l3-.76c6.48-1.62,13.88-4.3,16.46-5.95s6.44-13.43,7.56-20l2.38-14c1.12-6.59,2-14.27,1.89-17.08s-3.14-10.74-4.37-13,.84-8.68,4.57-14.22l7.64-11.33C237.66,171.17,242.78,160.15,241.84,157.35ZM60.25,170.21c-3.33-4.92-6.18-9.31-6.36-9.76V159.3a86.61,86.61,0,0,1,5.29-7.13c2.66-3.34,5.26-6.28,5.78-6.53s6.93,2.28,13,5.05l1,.44c6.07,2.78,11,5.19,10.84,5.36s-2.94,5.45-6.09,11.34l-5.34,10C75.16,183.7,63.57,175.14,60.25,170.21Zm156.37,45.61c.07,1.63-.79,8.35-1.9,14.93l-2.39,14.06c-1.11,6.58-2.43,12.65-2.93,13.47s-6.11,2.81-10.93,4-8.62,1.41-8.43.45-2.62-7.75-6.22-13-6.57-9.4-6.57-9.21.83,4.49,1.76,9.17a68.74,68.74,0,0,1,1.49,11.1,17.73,17.73,0,0,1-2.26,5.47l-5.35,7.4-10.7,14.84c-3.49,4.82-7.16,9.4-8.18,10.15S147.34,300,143.48,300a46.1,46.1,0,0,1-9.21-.7c-1.2-.38-6.05-6-9.57-10.91L114,273.53l-5.28-7.31a20.39,20.39,0,0,1-1.84-3.72c-.51-1.34.2-8.11,1.12-12.79s1.69-8.65,1.72-8.84-2.91,3.63-6.53,8.88S96.63,260.08,96.7,261s-3.4,2.43-8.22,1.24-9.41-2.63-10.19-3.18-2.56-7.69-3.67-14.27l-2.39-14.06c-1.11-6.58-2-13.3-1.89-14.93s1.86-6.22,2.75-7.87l7.33-13.7,11.71-21.89c3.15-5.88,6.52-11.52,7.49-12.52a15.79,15.79,0,0,1,3.75-2.27l12.06-2.77,12-2.76c6.5-1.49,13.36-2.84,15.23-3s11.12,1.54,17.63,3.06l11.21,2.62,12,2.82c.12,0,1.22.6,2.44,1.28s5.66,7.65,8.81,13.53l11.71,21.89c3.15,5.89,6.46,12.06,7.34,13.7S216.55,214.18,216.62,215.82Zm16.44-55.37c-.17.45-3,4.84-6.35,9.76s-14.92,13.49-18.07,7.6l-5.34-10-5.91-11c-.1-.17,4.59-2.89,10.66-5.67l.94-.44c6.07-2.77,11.61-5.05,12.3-5.07s3.82,3.21,6.48,6.55a84.12,84.12,0,0,1,5.29,7.13v1.15Z"/><path class="cls-2" d="M126.51,250.07c-1.44-2.87,0-5.22,3.23-5.22h27.48c3.21,0,4.66,2.35,3.23,5.22L146.09,266.4c-1.44,2.87-3.78,2.87-5.22,0Z"/><path class="cls-2" d="M143.48,285.08l4.31,3.94,9.33,8.53c2.38,2.17,5,2.38,5.76.48s-.72-4.95-3.37-6.76l-8.84-6c-2.65-1.81-4.82-3.35-4.81-3.42s0-2.89,0-6.11V259.25c0-3.21-.48-6.92-1.08-8.24h-2.65c-.59,1.32-1.08,5-1.08,8.24v16.46c0,3.22,0,5.91,0,6a53,53,0,0,1-4.8,3.55l-8.83,6c-2.66,1.81-4.18,4.85-3.38,6.76s3.39,1.69,5.76-.48l9.33-8.53C141.54,286.86,143.48,285.08,143.48,285.08Z"/><path class="cls-2" d="M92.36,206.88c-3.45.11-3.48.58-.06,1.07L121,212a6.68,6.68,0,0,1,5.62,7.13L122.93,232c-.31,3.43.76,6.34,2.39,6.46a8.89,8.89,0,0,0,3,0c0-.13.14-3.07.29-6.51l3-12c.15-3.45.34-8,.44-10.19s-.82-3.89-2-3.85l-8.47.24Z"/><path class="cls-2" d="M165.41,206.07l-8.46-.24c-1.21,0-2.12,1.7-2,3.85s.3,6.74.44,10.19l3,12c.15,3.44.28,6.38.3,6.51a8.82,8.82,0,0,0,3,0c1.64-.12,2.71-3,2.39-6.46l-3.65-12.79A6.68,6.68,0,0,1,166,212L194.65,208c3.42-.49,3.39-1-.06-1.07Z"/><path class="cls-2" d="M118.12,211.22a4,4,0,1,1-4-4A4,4,0,0,1,118.12,211.22Z"/><path class="cls-2" d="M176.79,211.22a4,4,0,1,1-4-4A4,4,0,0,1,176.79,211.22Z"/><path class="cls-2" d="M127.68,260.19c-17.41,4.13-33.74,12.38-48.47,22.41A126.93,126.93,0,0,0,67,292c-1.17,1,.3,2.66,1.53,1.8,7.25-5,14.44-10.21,22.05-14.73a153.29,153.29,0,0,1,23.14-11.3c4.73-1.82,9.55-3.37,14.4-4.8,1.69-.49,1.3-3.18-.48-2.75Z"/><path class="cls-2" d="M128.25,268c-7.35.42-13.94,4.05-19.79,8.29a113.35,113.35,0,0,0-17.25,16c-1.39,1.54-2.78,3.08-4.06,4.72s-2.33,3.12-3.45,4.75c-.63.92.65,2.21,1.49,1.36,10.28-10.37,19.38-22.35,32.64-29.2a35.81,35.81,0,0,1,10.81-3.71c1.48-.23,1-2.32-.39-2.24Z"/><path class="cls-2" d="M129.84,275.6c-7.17,1.68-13.07,6.28-18.1,11.48A114.1,114.1,0,0,0,97.35,306c-1.1,1.76-2.17,3.53-3.17,5.36s-1.78,3.52-2.62,5.35c-.48,1.06,1.14,1.86,1.79.93,8.37-12,15.29-25.4,27.23-34.45a35.56,35.56,0,0,1,10-5.43c1.21-.41.55-2.44-.69-2.15Z"/><path class="cls-2" d="M158.55,262.88a168.37,168.37,0,0,1,24.92,9.28,169.9,169.9,0,0,1,22.53,13c4.18,2.84,8.32,5.76,12.46,8.65,1.28.89,2.49-1,1.36-1.94a152.88,152.88,0,0,0-45.63-27.07,119.23,119.23,0,0,0-14.67-4.58c-1.71-.4-2.73,2.11-1,2.63Z"/><path class="cls-2" d="M158.4,270.25c6.86,1.05,13.23,4.66,18.72,8.75a117.19,117.19,0,0,1,16.61,15.58c2.6,2.88,5.19,5.71,7.91,8.46a1,1,0,0,0,1.56-1.32,85.42,85.42,0,0,0-6.54-8.39c-2.61-2.94-5.3-5.8-8.13-8.53-5.53-5.33-11.63-10.36-18.59-13.72A29.67,29.67,0,0,0,158.61,268a1.14,1.14,0,0,0-.21,2.26Z"/><path class="cls-2" d="M156.52,277.79c6.63,2.23,12.34,6.89,17.08,11.93A118.15,118.15,0,0,1,187.28,308c2.08,3.3,4.16,6.55,6.38,9.75.67,1,2.16-.08,1.7-1.1a85.58,85.58,0,0,0-5-9.36c-2.07-3.34-4.23-6.64-6.54-9.82-4.49-6.22-9.68-12.29-16-16.78a29.86,29.86,0,0,0-10.58-5c-1.39-.32-2.22,1.66-.79,2.14Z"/><path class="cls-2" d="M112.27,168.1c0,4.43-2.87,8-6.42,8s-6.43-3.6-6.43-8,2.88-8,6.43-8S112.27,163.66,112.27,168.1Z"/><path class="cls-2" d="M103.61,183.52a5.36,5.36,0,1,1-5.35-5.35A5.35,5.35,0,0,1,103.61,183.52Z"/><path class="cls-2" d="M128,166.08c-1.08,3.38-3.32,5.69-5,5.15s-2.19-3.72-1.12-7.1,3.32-5.69,5-5.15S129.07,162.7,128,166.08Z"/><path class="cls-2" d="M119.91,185.17a3.79,3.79,0,1,1-3.75-3.21A3.51,3.51,0,0,1,119.91,185.17Z"/><path class="cls-2" d="M198.9,246.48a5.35,5.35,0,1,0,7.17-2.4A5.34,5.34,0,0,0,198.9,246.48Z"/><path class="cls-2" d="M200.15,232.8c-.55,3.51.43,6.57,2.18,6.85s3.62-2.35,4.17-5.85-.43-6.58-2.19-6.85S200.7,229.3,200.15,232.8Z"/><path class="cls-2" d="M190.3,240.94a3.79,3.79,0,1,0,4.79-1.2A3.52,3.52,0,0,0,190.3,240.94Z"/></g></g></svg>