<?xml version="1.0" encoding="iso-8859-1"?>
<!-- Uploaded to: SVG Repo, www.svgrepo.com, Generator: SVG Repo Mixer Tools -->
<svg height="800px" width="800px" version="1.1" id="Layer_1" xmlns="http://www.w3.org/2000/svg" xmlns:xlink="http://www.w3.org/1999/xlink" 
	 viewBox="0 0 504 504" xml:space="preserve">
<circle style="fill:#84DBFF;" cx="252" cy="252" r="252"/>
<path style="fill:#F1543F;" d="M195.7,293c-17.5-17.5-23.1-42.2-17.1-64.4l40.8,40.8l46.6-46.6L225.2,182c22.2-6,47-0.4,64.4,17.1
	c17.5,17.5,23.1,42.2,17.1,64.4l27.2,27.2c-9.7,20.5-26.8,36.8-47.9,45.4L260.2,310C237.9,316.1,213.2,310.4,195.7,293z"/>
<path style="fill:#324A5E;" d="M125.9,283c3.2,12.9,8.3,25.1,15,36.2l-22.2,22.2l43.9,43.9l22.2-22.2c11.1,6.7,23.3,11.8,36.2,15
	v31.4h62v-31.4c12.9-3.2,25.1-8.3,36.2-15l22.2,22.2l43.9-43.9l-22.2-22.2c6.7-11.1,11.8-23.3,15-36.2h31.4v-62h-31.4
	c-3.2-13-8.3-25.1-15-36.2l22.2-22.2l-43.9-43.9l-22.2,22.2c-11.1-6.7-23.3-11.8-36.2-15V94.5h-62v31.4c-13,3.2-25.1,8.3-36.2,15
	l-22.2-22.2l-43.9,43.9l22.2,22.2c-6.7,11.1-11.8,23.3-15,36.2H94.5v62H125.9z M161.4,252c0-50,40.6-90.6,90.6-90.6
	s90.6,40.6,90.6,90.6c0,13.8-3.1,26.9-8.6,38.6c-9.7,20.5-26.8,36.8-47.9,45.4c-10.5,4.3-22,6.6-34.1,6.6
	C202,342.6,161.4,302,161.4,252z"/>
</svg>