<?xml version="1.0" encoding="UTF-8"?><svg id="katman_2" xmlns="http://www.w3.org/2000/svg" viewBox="0 0 351.98 222.36"><defs><style>.cls-1{fill:#2d2d2d;stroke-width:2.87px;}.cls-1,.cls-2,.cls-3,.cls-4,.cls-5{stroke-miterlimit:10;}.cls-1,.cls-3,.cls-5{stroke:#1c1c1c;}.cls-6,.cls-3{fill:#fff;}.cls-7{fill:#1c1c1c;}.cls-8{fill:#4f4f4f;}.cls-2{stroke:#f7f8f9;stroke-linecap:round;stroke-width:1.67px;}.cls-2,.cls-5{fill:none;}.cls-4{fill:#21aed8;stroke:#fffcf3;}.cls-5{stroke-width:3.48px;}</style></defs><g id="svg8"><g><path class="cls-1" d="M249.74,188.94v17.9c0,2.6-1.5,4.5-3.5,4.5H105.84c-2,0-3.5-1.9-3.5-4.5v-17.9c0-2.6,1.5-4.5,3.5-4.5H246.24c2,0,3.5,1.9,3.5,4.5Z"/><path class="cls-7" d="M345.94,1.74H6.24C3.94,1.74,2.14,3.54,2.14,5.84v13.3H349.94V5.84c0-2.1-1.8-4.1-4-4.1Z"/><path class="cls-5" d="M347.74,219.54H4.24c-1.4,0-2.5-1.1-2.5-2.5V4.24c0-1.4,1.1-2.5,2.5-2.5H347.74c1.4,0,2.5,1.1,2.5,2.5V217.04c-.1,1.4-1.2,2.5-2.5,2.5Z"/><path class="cls-6" d="M196.64,13.55h-41.3c-1,0-1.5-.5-1.5-1.5V6.25c0-1,.5-1.5,1.5-1.5h41.3c1,0,1.5,.5,1.5,1.5v5.8c0,1-.5,1.5-1.5,1.5Z"/><g><path class="cls-6" d="M342.84,12.64h-4.8c-.8,0-1.2-.4-1.2-1.2V6.64c0-.8,.4-1.2,1.2-1.2h4.8c.8,0,1.2,.4,1.2,1.2v4.8c0,.8-.8,1.2-1.2,1.2Z"/><path class="cls-6" d="M331.64,12.64h-4.8c-.8,0-1.2-.4-1.2-1.2V6.64c0-.8,.4-1.2,1.2-1.2h4.8c.8,0,1.2,.4,1.2,1.2v4.8c0,.8-.4,1.2-1.2,1.2Z"/><path class="cls-6" d="M320.44,12.64h-4.8c-.8,0-1.2-.4-1.2-1.2V6.64c0-.8,.4-1.2,1.2-1.2h4.8c.8,0,1.2,.4,1.2,1.2v4.8c0,.8-.4,1.2-1.2,1.2Z"/></g><line class="cls-2" x1="8.04" y1="9.04" x2="29.64" y2="9.04"/><g><path class="cls-6" d="M110.94,189.64h13.7c1,0,1.5,.5,1.5,1.5v13.7c0,1-.5,1.5-1.5,1.5h-13.7c-1,0-1.5-.5-1.5-1.5v-13.7c.1-1.1,1-1.5,1.5-1.5Z"/><path class="cls-6" d="M133.84,189.64h13.7c1,0,1.5,.5,1.5,1.5v13.7c0,1-.5,1.5-1.5,1.5h-13.7c-1,0-1.5-.5-1.5-1.5v-13.7c.1-1.1,1-1.5,1.5-1.5Z"/><path class="cls-6" d="M156.74,189.64h13.7c1,0,1.5,.5,1.5,1.5v13.7c0,1-.5,1.5-1.5,1.5h-13.7c-1,0-1.5-.5-1.5-1.5v-13.7c.1-1.1,1-1.5,1.5-1.5Z"/><path class="cls-6" d="M179.64,189.64h13.7c1,0,1.5,.5,1.5,1.5v13.7c0,1-.5,1.5-1.5,1.5h-13.7c-1,0-1.5-.5-1.5-1.5v-13.7c.1-1.1,1-1.5,1.5-1.5Z"/><path class="cls-6" d="M202.54,189.64h13.7c1,0,1.5,.5,1.5,1.5v13.7c0,1-.5,1.5-1.5,1.5h-13.7c-1,0-1.5-.5-1.5-1.5v-13.7c.1-1.1,1.1-1.5,1.5-1.5Z"/><path class="cls-8" d="M225.54,188.54h15.4c1.1,0,1.7,.6,1.7,1.7v15.4c0,1.1-.6,1.7-1.7,1.7h-15.4c-1.1,0-1.7-.6-1.7-1.7v-15.4c0-1.1,1.1-1.7,1.7-1.7Z"/><g><path class="cls-6" d="M229.04,199.14c1.7,0,3.3,1.7,3.3,3.3,0,1.7-1.7,3.3-3.3,3.3s-3.3-1.7-3.3-3.3c0-1.6,1.7-3.3,3.3-3.3Z"/><circle class="cls-6" cx="229.04" cy="193.34" r="3.3"/><path class="cls-6" d="M237.34,199.14c1.7,0,3.3,1.7,3.3,3.3,0,1.7-1.7,3.3-3.3,3.3-1.7,0-3.3-1.7-3.3-3.3s1.7-3.3,3.3-3.3Z"/><circle class="cls-6" cx="237.34" cy="193.34" r="3.3"/></g></g><g><polygon class="cls-3" points="255.71 204.45 232.61 196.95 237.91 221.25 243.91 215.05 250.21 221.65 255.21 216.65 249.81 210.35 255.71 204.45"/><polygon class="cls-4" points="253.91 204.85 233.81 198.35 238.41 219.35 243.91 213.75 250.21 220.35 253.91 216.65 248.51 210.25 253.91 204.85"/></g></g></g></svg>