<?xml version="1.0" encoding="UTF-8"?><svg id="katman_2" xmlns="http://www.w3.org/2000/svg" viewBox="0 0 352 230.67"><defs><style>.cls-1{fill:#f4f7f9;}.cls-2,.cls-3{fill:#fff;}.cls-4{fill:#4f4f4f;}.cls-5{stroke-width:2.87px;}.cls-5,.cls-6,.cls-7,.cls-8,.cls-9,.cls-10,.cls-11{fill:none;}.cls-5,.cls-7,.cls-8,.cls-9,.cls-11{stroke:#f4f7f9;stroke-linecap:round;stroke-linejoin:round;}.cls-12{stroke-width:4.72px;}.cls-12,.cls-6,.cls-3,.cls-13,.cls-14,.cls-10{stroke-miterlimit:10;}.cls-12,.cls-3,.cls-14,.cls-10{stroke:#1c1c1c;}.cls-12,.cls-14{fill:#2d2d2d;}.cls-6{stroke:#fafcff;stroke-width:.68px;}.cls-7{stroke-width:2.37px;}.cls-13{fill:#21aed8;stroke:#fffcf3;}.cls-8{stroke-width:2.41px;}.cls-9{stroke-width:2.12px;}.cls-14{stroke-width:1.74px;}.cls-10{stroke-width:3.48px;}.cls-11{stroke-width:3.03px;}</style></defs><g id="svg8"><g><g><path class="cls-14" d="M129.32,186.11H15.62c-4.2,0-7.7-3.5-7.7-7.7V78.91c0-4.2,3.5-7.7,7.7-7.7h114c4.2,0,7.7,3.5,7.7,7.7v99.7c-.2,4.2-3.7,7.5-8,7.5Z"/><g><path class="cls-4" d="M70.72,182.51H15.72c-2.3,0-4.2-2.7-4.2-6.2h0c0-3.5,1.8-6.2,4.2-6.2h55c2.3,0,4.2,2.7,4.2,6.2h0c-.1,3.5-1.8,6.2-4.2,6.2Z"/><g><circle class="cls-6" cx="18.22" cy="175.51" r="2.4"/><line class="cls-6" x1="20.22" y1="177.11" x2="22.62" y2="179.61"/></g></g><polyline class="cls-9" points="86.22 172.51 90.12 176.31 86.12 180.21"/><line class="cls-5" x1="36.22" y1="86.51" x2="66.82" y2="86.51"/><line class="cls-8" x1="103.22" y1="86.21" x2="124.82" y2="86.21"/><line class="cls-8" x1="103.22" y1="102.21" x2="124.82" y2="102.21"/><line class="cls-8" x1="103.22" y1="113.61" x2="124.82" y2="113.61"/><line class="cls-8" x1="103.22" y1="125.01" x2="124.82" y2="125.01"/><line class="cls-8" x1="103.22" y1="136.41" x2="124.82" y2="136.41"/><line class="cls-8" x1="103.22" y1="159.21" x2="124.82" y2="159.21"/><line class="cls-8" x1="103.22" y1="147.81" x2="124.82" y2="147.81"/><line class="cls-7" x1="36.22" y1="104.71" x2="57.12" y2="104.71"/><line class="cls-11" x1="36.22" y1="122.91" x2="70.22" y2="122.91"/><path class="cls-2" d="M17.12,79.71h11.2c.8,0,1.2,.4,1.2,1.2v11.2c0,.8-.4,1.2-1.2,1.2h-11.2c-.8,0-1.2-.4-1.2-1.2v-11.2c.2-.9,.9-1.2,1.2-1.2Z"/><path class="cls-2" d="M17.12,97.91h11.2c.8,0,1.2,.4,1.2,1.2v11.2c0,.8-.4,1.2-1.2,1.2h-11.2c-.8,0-1.2-.4-1.2-1.2v-11.2c.2-.9,.9-1.2,1.2-1.2Z"/><line class="cls-7" x1="36.22" y1="141.01" x2="57.12" y2="141.01"/><path class="cls-2" d="M17.12,134.21h11.2c.8,0,1.2,.4,1.2,1.2v11.2c0,.8-.4,1.2-1.2,1.2h-11.2c-.8,0-1.2-.4-1.2-1.2v-11.2c.2-.9,.9-1.2,1.2-1.2Z"/><path class="cls-2" d="M17.12,116.01h11.2c.8,0,1.2,.4,1.2,1.2v11.2c0,.8-.4,1.2-1.2,1.2h-11.2c-.8,0-1.2-.4-1.2-1.2v-11.2c.2-.8,.9-1.2,1.2-1.2Z"/><circle class="cls-1" cx="89.82" cy="85.81" r="6.8"/><path class="cls-2" d="M93.02,99.81v4.8c0,.8-.4,1.2-1.2,1.2h-4.8c-.8,0-1.2-.4-1.2-1.2v-4.8c0-.8,.4-1.2,1.2-1.2h4.8c.8,0,1.2,.8,1.2,1.2Z"/><path class="cls-2" d="M93.02,111.21v4.8c0,.8-.4,1.2-1.2,1.2h-4.8c-.8,0-1.2-.4-1.2-1.2v-4.8c0-.8,.4-1.2,1.2-1.2h4.8c.8,0,1.2,.4,1.2,1.2Z"/><path class="cls-2" d="M93.02,122.61v4.8c0,.8-.4,1.2-1.2,1.2h-4.8c-.8,0-1.2-.4-1.2-1.2v-4.8c0-.8,.4-1.2,1.2-1.2h4.8c.8,0,1.2,.4,1.2,1.2Z"/><path class="cls-2" d="M93.02,134.01v4.8c0,.8-.4,1.2-1.2,1.2h-4.8c-.8,0-1.2-.4-1.2-1.2v-4.8c0-.8,.4-1.2,1.2-1.2h4.8c.8,0,1.2,.4,1.2,1.2Z"/><path class="cls-2" d="M93.02,145.41v4.8c0,.8-.4,1.2-1.2,1.2h-4.8c-.8,0-1.2-.4-1.2-1.2v-4.8c0-.8,.4-1.2,1.2-1.2h4.8c.8,0,1.2,.4,1.2,1.2Z"/><path class="cls-2" d="M93.02,156.81v4.8c0,.8-.4,1.2-1.2,1.2h-4.8c-.8,0-1.2-.4-1.2-1.2v-4.8c0-.8,.4-1.2,1.2-1.2h4.8c.8,0,1.2,.4,1.2,1.2Z"/></g><path class="cls-10" d="M347.94,219.64H4.24c-1.4,0-2.5-1.1-2.5-2.5V4.24c0-1.4,1.1-2.5,2.5-2.5H347.74c1.4,0,2.5,1.1,2.5,2.5V217.04c0,1.4-1.1,2.6-2.3,2.6Z"/><path class="cls-12" d="M349.64,192.64H2.54v24.4c0,1.4,1.1,2.5,2.5,2.5H347.14c1.4,0,2.5-1.1,2.5-2.5v-24.4Z"/><path class="cls-2" d="M33.54,197.9h13.7c1,0,1.5,.5,1.5,1.5v13.7c0,1-.5,1.5-1.5,1.5h-13.7c-1,0-1.5-.5-1.5-1.5v-13.7c.1-1.2,1-1.5,1.5-1.5Z"/><path class="cls-2" d="M56.44,197.9h13.7c1,0,1.5,.5,1.5,1.5v13.7c0,1-.5,1.5-1.5,1.5h-13.7c-1,0-1.5-.5-1.5-1.5v-13.7c.1-1.2,1-1.5,1.5-1.5Z"/><path class="cls-2" d="M79.24,197.9h13.8c1,0,1.5,.5,1.5,1.5v13.7c0,1-.5,1.5-1.5,1.5h-13.8c-1,0-1.5-.5-1.5-1.5v-13.7c.2-1.2,1.1-1.5,1.5-1.5Z"/><path class="cls-2" d="M102.16,197.9h13.8c1,0,1.5,.5,1.5,1.5v13.7c0,1-.5,1.5-1.5,1.5h-13.8c-1,0-1.5-.5-1.5-1.5v-13.7c.2-1.2,1.1-1.5,1.5-1.5Z"/><path class="cls-2" d="M121.46,205.33h31.75c.9,0,1.62,.73,1.62,1.62h0c0,.9-.73,1.62-1.62,1.62h-31.63c-.9,0-1.62-.73-1.62-1.62v-.12c.1-1.2,1.1-1.5,1.5-1.5Z"/><path class="cls-2" d="M164.61,197.9h13.7c1,0,1.5,.5,1.5,1.5v13.7c0,1-.5,1.5-1.5,1.5h-13.7c-1,0-1.5-.5-1.5-1.5v-13.7c.1-1.2,1.1-1.5,1.5-1.5Z"/><path class="cls-2" d="M308.14,209.95h-41.3c-1,0-1.5-.4-1.5-1.3v-4.8c0-.8,.5-1.3,1.5-1.3h41.3c1,0,1.5,.4,1.5,1.3v4.8c0,.8-.5,1.3-1.5,1.3Z"/><g><path class="cls-2" d="M343.44,209.85h-4.8c-.8,0-1.2-.4-1.2-1.2v-4.8c0-.8,.4-1.2,1.2-1.2h4.8c.8,0,1.2,.4,1.2,1.2v4.8c0,.9-.8,1.2-1.2,1.2Z"/><path class="cls-2" d="M332.24,209.85h-4.8c-.8,0-1.2-.4-1.2-1.2v-4.8c0-.8,.4-1.2,1.2-1.2h4.8c.8,0,1.2,.4,1.2,1.2v4.8c0,.9-.4,1.2-1.2,1.2Z"/><path class="cls-2" d="M321.04,209.85h-4.8c-.8,0-1.2-.4-1.2-1.2v-4.8c0-.8,.4-1.2,1.2-1.2h4.8c.8,0,1.2,.4,1.2,1.2v4.8c0,.9-.4,1.2-1.2,1.2Z"/></g><path class="cls-2" d="M155.15,216.54h-52.93c-.4,0-.8-.2-.8-.6,0-.3,.3-.6,.8-.6h52.93c.4,0,.8,.2,.8,.6-.02,.45-.4,.6-.8,.6Z"/><path class="cls-4" d="M9.34,196.93h15.4c1.1,0,1.7,.6,1.7,1.7v15.4c0,1.1-.6,1.7-1.7,1.7H9.34c-1.1,0-1.7-.6-1.7-1.7v-15.4c.1-1.1,1.1-1.7,1.7-1.7Z"/><g><path class="cls-2" d="M12.94,207.5c1.7,0,3.3,1.7,3.3,3.3,0,1.7-1.7,3.3-3.3,3.3-1.7,0-3.3-1.7-3.3-3.3s1.6-3.3,3.3-3.3Z"/><circle class="cls-2" cx="12.94" cy="201.7" r="3.3"/><path class="cls-2" d="M21.24,207.5c1.7,0,3.3,1.7,3.3,3.3,0,1.7-1.7,3.3-3.3,3.3-1.7,0-3.3-1.7-3.3-3.3s1.7-3.3,3.3-3.3Z"/><circle class="cls-2" cx="21.24" cy="201.7" r="3.3"/></g><g><polygon class="cls-3" points="39.72 212.76 16.62 205.26 21.92 229.56 27.92 223.36 34.22 229.96 39.22 224.96 33.82 218.66 39.72 212.76"/><polygon class="cls-13" points="37.92 213.16 17.82 206.66 22.42 227.66 27.92 222.06 34.22 228.66 37.92 224.96 32.52 218.56 37.92 213.16"/></g></g></g></svg>