<svg width="65" height="64" viewBox="0 0 65 64" fill="none" xmlns="http://www.w3.org/2000/svg">
<path opacity="0.75" d="M0.000305176 12.814C0.000305176 9.603 2.6033 7 5.81426 7H21.2638C22.711 7 24.1062 7.53974 25.1766 8.5137L33.0041 15.6359C34.0745 16.6099 35.4697 17.1496 36.9169 17.1496H58.1398C61.3508 17.1496 63.9538 19.7526 63.9538 22.9636V51.186C63.9538 54.397 61.3508 57 58.1398 57H5.81426C2.6033 57 0.000305176 54.397 0.000305176 51.186V12.814Z" fill="#2BABA7"/>
<path d="M64.0891 18.0667C64.1003 14.8479 61.5091 12.2325 58.2902 12.2325C46.6612 12.2325 20.4155 12.2325 5.79765 12.2325C2.58669 12.2325 -2.28882e-05 14.8355 -2.28882e-05 18.0465V51.186C-2.28882e-05 54.397 2.60297 57 5.81393 57H58.1597C61.3628 57 63.9625 54.4093 63.9736 51.2063L64.0891 18.0667Z" fill="url(#paint0_linear_2726_1948)"/>
<path d="M5.81378 7.43652H21.264C22.6025 7.43656 23.893 7.93515 24.8831 8.83594L32.7103 15.958C33.861 17.005 35.3616 17.5859 36.9173 17.5859H58.14C61.11 17.586 63.5179 19.9938 63.5179 22.9639V51.1865C63.5176 54.1564 61.1099 56.5634 58.14 56.5635H5.81378C2.84402 56.5632 0.437086 54.1563 0.436829 51.1865V12.8135C0.437086 9.84372 2.84402 7.43678 5.81378 7.43652Z" stroke="url(#paint1_linear_2726_1948)" stroke-width="0.872093"/>
<defs>
<linearGradient id="paint0_linear_2726_1948" x1="24.8675" y1="2.93455" x2="24.8675" y2="57" gradientUnits="userSpaceOnUse">
<stop stop-color="#79DCD9" stop-opacity="0.6"/>
<stop offset="1" stop-color="#88C4CD"/>
</linearGradient>
<linearGradient id="paint1_linear_2726_1948" x1="31.977" y1="32.5814" x2="31.977" y2="57" gradientUnits="userSpaceOnUse">
<stop stop-color="#71D0CD" stop-opacity="0.75"/>
<stop offset="1" stop-color="#79DCD9" stop-opacity="0"/>
</linearGradient>
</defs>
</svg>
