<svg width="64" height="64" viewBox="0 0 64 64" fill="none" xmlns="http://www.w3.org/2000/svg">
<path d="M55.7165 57H7.47957C3.35156 57 1.00601 53.875 1.00601 47.9375L10.8737 24.3667C11.1883 23.6151 11.9246 23.1268 12.7394 23.1294L27.4224 23.1762V12.6022C27.4223 9.50819 29.949 7 33.0659 7H54.6713C57.7882 7 60.3149 9.50819 60.3149 12.6022L60.9851 52.625C60.9851 55.75 58.2565 57 55.7165 57Z" fill="url(#paint0_linear_2691_2689)"/>
<path d="M55.7165 57H7.47957C3.35156 57 1.00601 53.875 1.00601 47.9375L10.8737 24.3667C11.1883 23.6151 11.9246 23.1268 12.7394 23.1294L27.4224 23.1762V12.6022C27.4223 9.50819 29.949 7 33.0659 7H54.6713C57.7882 7 60.3149 9.50819 60.3149 12.6022L60.9851 52.625C60.9851 55.75 58.2565 57 55.7165 57Z" fill="black" fill-opacity="0.2"/>
<path d="M55.7165 57H7.47957C3.35156 57 1.00601 53.875 1.00601 47.9375L10.8737 24.3667C11.1883 23.6151 11.9246 23.1268 12.7394 23.1294L27.4224 23.1762V12.6022C27.4223 9.50819 29.949 7 33.0659 7H54.6713C57.7882 7 60.3149 9.50819 60.3149 12.6022L60.9851 52.625C60.9851 55.75 58.2565 57 55.7165 57Z" fill="black" fill-opacity="0.2"/>
<path d="M54.7299 57H6.47615C2.3467 57 0.000335693 53.875 0.000335693 47.9375L9.87154 24.3665C10.1863 23.6149 10.9225 23.1268 11.7372 23.1294L26.4259 23.1762V12.6022C26.4258 9.50819 28.9534 7 32.0714 7H53.6843C56.8023 7 59.3299 9.50819 59.3299 12.6022L60.0003 52.625C60.0003 55.75 57.2708 57 54.7299 57Z" fill="url(#paint1_linear_2691_2689)"/>
<path d="M54.7299 57H6.47615C2.3467 57 0.000335693 53.875 0.000335693 47.9375L9.87154 24.3665C10.1863 23.6149 10.9225 23.1268 11.7372 23.1294L26.4259 23.1762V12.6022C26.4258 9.50819 28.9534 7 32.0714 7H53.6843C56.8023 7 59.3299 9.50819 59.3299 12.6022L60.0003 52.625C60.0003 55.75 57.2708 57 54.7299 57Z" fill="black" fill-opacity="0.2"/>
<path d="M59.1689 54H8.83112C6.71524 54 5 52.3456 5 50.3048V13.6952C5 11.6544 6.71524 10 8.83112 10H59.1689C61.2848 10 63 11.6544 63 13.6952V50.3047C63 52.3455 61.2848 53.9999 59.1689 53.9999V54Z" fill="url(#paint2_linear_2691_2689)"/>
<path d="M21.9128 10.861C21.1305 8.57104 18.8496 7.01672 16.2733 7.01672H7.25936C3.99012 7.01672 1.34012 9.48816 1.34012 12.537V48.7448C1.34012 51.7555 3.9574 54.1964 7.18567 54.1964H61.0756V52.6891V20.2256C61.0756 17.1771 58.4256 14.7052 55.1563 14.7052H27.5527C24.9759 14.7052 22.6951 13.1508 21.9128 10.861Z" fill="url(#paint3_linear_2691_2689)"/>
<path d="M21.9128 10.861C21.1305 8.57104 18.8496 7.01672 16.2733 7.01672H7.25936C3.99012 7.01672 1.34012 9.48816 1.34012 12.537V48.7448C1.34012 51.7555 3.9574 54.1964 7.18567 54.1964H61.0756V52.6891V20.2256C61.0756 17.1771 58.4256 14.7052 55.1563 14.7052H27.5527C24.9759 14.7052 22.6951 13.1508 21.9128 10.861Z" fill="black" fill-opacity="0.25"/>
<path d="M20.6641 10.8296C19.8783 8.5484 17.5873 7 14.9996 7H5.94579C2.66207 7 0.000335693 9.46202 0.000335693 12.4992V48.5691C0.000335693 51.5684 2.6292 54 5.87177 54H60.0003V52.4984V20.1586C60.0003 17.1217 57.3386 14.6592 54.0549 14.6592H26.329C23.7408 14.6592 21.4499 13.1107 20.6641 10.8296Z" fill="url(#paint4_linear_2691_2689)"/>
<defs>
<linearGradient id="paint0_linear_2691_2689" x1="41.8856" y1="29.8125" x2="41.5941" y2="57.6254" gradientUnits="userSpaceOnUse">
<stop stop-color="#E0BC79"/>
<stop offset="0.875497" stop-color="#896C34"/>
</linearGradient>
<linearGradient id="paint1_linear_2691_2689" x1="40.8942" y1="29.8125" x2="40.6028" y2="57.6254" gradientUnits="userSpaceOnUse">
<stop stop-color="#E0BC79"/>
<stop offset="0.875497" stop-color="#896C34"/>
</linearGradient>
<linearGradient id="paint2_linear_2691_2689" x1="33.9999" y1="-5.65149" x2="33.9999" y2="54.4644" gradientUnits="userSpaceOnUse">
<stop stop-color="#FFFCF8"/>
<stop offset="0.188" stop-color="#FAF8F6"/>
<stop offset="0.404" stop-color="#ECEEF2"/>
<stop offset="0.635" stop-color="#D5DCEA"/>
<stop offset="0.875" stop-color="#B5C4DF"/>
<stop offset="1" stop-color="#A1B5D8"/>
</linearGradient>
<linearGradient id="paint3_linear_2691_2689" x1="32.0159" y1="31.1024" x2="32.0159" y2="56.8702" gradientUnits="userSpaceOnUse">
<stop stop-color="#E0BC79"/>
<stop offset="1" stop-color="#AC8B4A"/>
</linearGradient>
<linearGradient id="paint4_linear_2691_2689" x1="30.812" y1="30.994" x2="30.812" y2="56.6636" gradientUnits="userSpaceOnUse">
<stop stop-color="#E0BC79"/>
<stop offset="1" stop-color="#AC8B4A"/>
</linearGradient>
</defs>
</svg>
